<svg id="Calque_1" data-name="Calque 1" xmlns="http://www.w3.org/2000/svg" viewBox="0 0 900 710"><ellipse cx="450.04" cy="649.43" rx="432.88" ry="45.57" style="fill:#719baf"/><path d="M301.56,378.73c10.71,0,11.11.4,18.78,0,.27-.17.35-1.16.5-.86,1.21,1.17,2.7.79,4.08.79q106,0,212-.07,21.93,0,43.87,0c1.39-1.48,40.56-.19,50.55,0,9.71.39,19.51.62,29.23.11,1.87.87,11.94-1.21,15.05-1.23,26.72-.13,53.44.2,80.16-.18,3.21,0,4.53,1.17,4.62,4.61.12,4.43,0,8.87,0,13.31,0,3.18-1.54,5.05-4.27,5.44-2.17.32-4.27,1.13-6.48,1.11-.5,0-1,0-1.51,0a8.28,8.28,0,0,1-1.49.05c-4.89.43-9.72-.57-14.62-.47-16.33.34-32.67-.35-49,.43a9.72,9.72,0,0,0-1.52.11c-6.52-1.46-13.12-1.06-19.7-1.07H251c-4.14,0-8.27-.07-12.36.85-7.1-.54-14.21-.07-21.32-.27-1.9-.06-3.94.28-5.39-1.61-4.74,0-9.49-.15-14.24-.15q-31.58,0-63.17,0c-5.3,0-5.45-.17-5.44-5.8,0-3.61.06-7.22,0-10.82,0-3.12,1.17-4.46,4.2-4.43,11.24.11,22.48,0,33.72,0,1.08-2.12,2.88-2.62,4.93-2.53,8.6.39,17.2-.84,25.81,1a35.21,35.21,0,0,0,16.51-.91c18.41-.58,36.83.1,55.25-.09,9.16-.1,18.33-.08,27.49-.06C299.06,376.05,299.65,377.66,301.56,378.73Z" style="fill:#f1c7b5"/><path d="M660.83,206a46.36,46.36,0,0,1-.79-10.78q0-80,0-160c0-9,1.29-9.92,10.12-10.12,12.94-.29,25.88-.07,38.83-.07,5.36.79,10.77.33,16.15.38,3.68,0,5.56,1.49,5.3,4.51s-2.42,4.65-5.76,3.93c-2.3-.49-4.35.29-6.49.5-7.09.7-14.19.24-21.29.38-3.4.07-6.7.49-9.44,2.78-1.23,2.18-.81,4.56-.81,6.86q0,67.51,0,135c0,2.56.41,5.2-.84,7.62-.88,1.1-2,1.93-3.25.82-1-.84-.25-1.85.34-2.75.83-1.29.49-2.77.47-4.17q-.26-18.22-.18-36.45c.14-25.58.06-51.17.23-76.75,0-3.51-1.66-6.92-.82-10.38,1.06-4.34.67-8.7.8-13.05,0,2.45,0,4.91,0,7.37,0,1.56.15,3.4-2.09,3.44a3.12,3.12,0,0,1-3.21-3.26c-.16-3.36-.55-6.68-1-10,0,1.75-.23,3.72-1.83,4.45-2.77,1.26-2.62,3.39-2.58,5.76.07,4.27,0,8.54,0,12.81,0,3.39-.13,6.7-2.16,9.66a8,8,0,0,0-.93,4.51,32.83,32.83,0,0,1-.79,8.08,6.26,6.26,0,0,0,0,3.46,56.62,56.62,0,0,1,2.09,21.83c-1,10.12-.22,20.18.48,30.15.65,9.14,1.32,18.25,1.27,27.41,0,.39-.1,1,.11,1.11,4.83,1.7,3.32,6.3,4.59,9.74-.34-4,.5-7.86.46-11.77-.11-10-.41-20,.23-29.85.58-9.08-.5-18-.23-27.07a27.32,27.32,0,0,0-.55-6.55,15.55,15.55,0,0,1,.17-8.42,16.16,16.16,0,0,0,.38-5c0-7.64,0-15.27,0-22.9a13.39,13.39,0,0,1,.35-4.24c.44-1.35,1-2.88,2.77-2.76s2.21,1.59,2.37,3.08a31.41,31.41,0,0,1,.06,3.5c0,16.17,0,32.34,0,48.51-.06,21,.06,42.09,0,63.14,0,2,.11,4-1.3,5.87s-.6,3.22,1.84,3.22a16.11,16.11,0,0,0,3.1-.11,2.82,2.82,0,0,1,3.07,1.17c.91,1.35-.17,2.12-1,2.89-1.22,1.1-.78,1.87.58,2.09,2.64.41,5.23,1.18,7.9-.42,4.44-2.65,9.07-2.55,13.6,0a8.16,8.16,0,0,0,4,1.26c6.58,0,13.18.66,19.74-.48a1.26,1.26,0,0,1,.38,0c12.9.64,25.8-.22,38.69,0,5.55.11,11.09-.06,16.62-.39,3.47-.21,7.52-5.06,7.79-8.73-.48-7.63,0-15.27-.24-22.9-1-40.1-.7-80.21-.78-120.32,0-5.83-1-7.1-6.8-6.62-11.64.94-23.27.56-34.9.61-2.38,0-3.61.89-3.71,3.37-.08,1.7-.22,3.61-2.88,2.8A3.63,3.63,0,0,1,747.79,41c-.23-4.24-.21-8.48,0-12.72a3.41,3.41,0,0,1,1.73-3.23q32.71,0,65.43,0c4.35,0,5.09.81,5.12,5.29,0,4.65,0,9.3,0,13.94,0,1.39-.31,2.87.72,4.09,1.45.83,1.59,2.25,1.67,3.69s.09,3.11.09,4.66q0,69.29,0,138.57c0,11.85-.6,12.42-12.57,12.42q-69.87,0-139.73,0C667,207.75,663.78,207.61,660.83,206Z" style="fill:#a5c3d0"/><path d="M369.73,250.44c10.64-8,22.82-12.65,35.42-16.42a9.88,9.88,0,0,1,3.4-.54c3.25,12.62,11.93,19.54,23.91,23.3,9.13,2.86,17.78,1,24.67-1.21-12.56,5-26,3.49-38.39-5.76-5.43-4.06-8.42-9.86-10.19-16.32,2.82-.94,5.5-2.8,8.7-1.42,2.4,9.12,8.37,14.68,17.42,16.72,9.66,2.18,19,1.67,27.18-4.87a14.72,14.72,0,0,0,5.81-12c1.42-1.19,2.9-.56,4.37-.13,13.86,4.06,27.26,9.13,39.07,17.68a6.32,6.32,0,0,0,3.14,1.31c4.74,3.75,6.75,9.35,9.67,14.32,7.23,12.35,13.05,25.47,20.31,37.81,1.28,2.17,1.43,5,4,6.92.2-3.35.09-6.42.1-9.48,0-8.91,0-17.83,0-26.74,0-1.87-.41-4,1.68-5.21a11.49,11.49,0,0,1,2.4,7.95c-.34,14.6,1.05,29.2.19,43.8-.13,2.18,1.19,3.91,2.15,5.73,4.8,9,10.36,17.63,13.73,27.33,2.23,6.41,2.85,12.87-.83,19.08-2.77,4.66-6.51,7.55-12.24,7.39s-11.37.21-17-.32c-1.47-1.52,0-2.66.64-3.74,5.35-9,4-17.26-3.94-23.87-.92-.77-1.93-1.58-1.59-2.86.38-1.46,1.8-1.7,3.1-1.88,3.1-.43,8.7.94,13.6,3.27-5.67-2.86-11.53-4.34-17.87-2.5a3.74,3.74,0,0,1-3-.41c-5.27-7.75-10.37-15.58-11.63-25.17-.2-1.55-1-2.94-1.12-4.49.07-8.45,1.4-16.81,1.86-25.23.21-3.79,1.23-7.65-1-11.22a4.67,4.67,0,0,0-4.26-2.22l-4.26,0q-72,0-143.92-.07a17.12,17.12,0,0,0-10.84,3.32,5.87,5.87,0,0,0-2.82,5.11c-.16,3.83-1.32,7.65.38,11.44a5.78,5.78,0,0,1,.17,2.69c-.35,4.89-.51,9.72.58,14.6.65,2.94-2.88,8.33-5.59,9.53a3,3,0,0,1-3.58-.51,3.76,3.76,0,0,1-.61-4.34c.65-1.66,2-3,2.17-4.91.34-3.17,1.27-6.22-.66-9.36-1.12-1.83-.2-4.09.72-6,1.15-2.34.59-3.94-1.67-5.06a4.17,4.17,0,0,1-.09-4.76c2.54-3.87,3.6-8.51,6.45-12.19a6.45,6.45,0,0,0,1.32-2.33c.88-3.53,0-7.37,3.35-8.26,2.15-.57,2.81-2.15,2.43-5.29C362.6,253.62,360.26,254.89,369.73,250.44Z" style="fill:#3f6180"/><path d="M198,666.19,195.82,663c-3.12-2.06-4.4-5.23-5.18-8.69-.42-1.52-1.45-2.72-2.12-4.12-1.07-2.25-2.77-3.28-5.34-2.73-7.42,1.57-14.94.85-22.42.88-8.1,0-15.81,1.29-23.24,4.85-9.38,4.5-20.17-.12-25.47-10.37l-.23-3a120.1,120.1,0,0,1-.34-17c.2-7.24,8.94-17.56,15.2-18.87a38.76,38.76,0,0,1,22-9.32c7.28-.6,14.41.52,21.52,1.94,2,.39,3.95,1.32,6,.42a23.4,23.4,0,0,1,5.95-1.65c2.75-.41,4.13-1.92,4.12-4.71,0-4.56,1-8.95,2-13.38.85-4-.82-8.22.41-12.31.25-.85.23-1.78.48-2.66,1.85-6.56,6.21-8.11,11.64-3.94,2.85,2.18,6,4.11,7.75,7.48a4,4,0,0,0,4,1.9c4.63-.66,9.29-.33,13.93-.33a6.57,6.57,0,0,0,5.16-2.12,49.84,49.84,0,0,1,8.14-7.14c5.49-3.72,9.19-2.08,10.48,4.39.9,4.49.75,9,.71,13.5a17.67,17.67,0,0,0,2.05,8.93,19.27,19.27,0,0,1,2.57,9.24c0,3.94-.63,4.57-4.72,4.7.6,0,1.19,0,1.78,0s1.28.12,1.53.86c-.7,1.53-2,.47-3,.68s-1.95-.33-2.67.21c1.15-.48,2.51-.14,3.85-.11,1.06.52,1.67,1.28,1.08,2.47-.38.79-1.15.86-1.95,1-1.05.18.28.22.07.4a2.36,2.36,0,0,1,.8,2.08,9.21,9.21,0,0,1-1.58,4.33c-4.45,7.37-10.68,12.14-19.4,13.24-4.07.54-8.12,1.38-12.24,1.33-2.7,0-2.79,2-3,3.65-.7,5.85-1.19,11.74-1.77,17.61-.64,6.5-.76,13.05-2.28,19.44C208.37,669.41,203.35,669.43,198,666.19Z" style="fill:#fdf2f1"/><path d="M385.18,154.53a10.51,10.51,0,0,0-2.66-5.42A30.76,30.76,0,0,1,375.18,125c.61-5.41,1.77-6.53,7.19-6.07,2.4.2,2.27-.69,1.86-2.39-.63-2.61-1.55-5.2-1.13-8,1.86-.49,3,.88,4.29,1.5a9.67,9.67,0,0,0,6.77.79c3.44-.87,4.49-2.66,3.77-6.18-1.53-7.5.72-13,7.08-17.06.93,1.57.17,3.25.4,4.81a29.94,29.94,0,0,0,.44,3.44,1.44,1.44,0,0,0,1.78,1.09,1.32,1.32,0,0,0,1-1.47c0-2,0-4.11,0-6.11.48-.11.77-.28,1-.2,8.81,3.71,17.53,1.71,26.22-.48,7.18-1.81,14.32-2.16,21.38.42,6.83,2.49,12.3,6.59,15.07,13.56a2.47,2.47,0,0,0,2.89,1.82c16.67-1,28.72,12.21,29.74,30,.77,13.28-3.21,25.17-10.09,36.29-5.43-.39-5.42-.39-7.1,5.33-.66,2.23-1.45,4.41-3.55,5.7-1.29.8-2.69,1.72-4.08.08-1-3,.16-6.21-1-9.18-.34-1.49-.05-3.12-1-4.48-2.17-3.48-5.13-6.41-7.1-10a43.48,43.48,0,0,1-4.27-11.91c-.27-1.26.16-3-1.69-3.49-7.27,9.29-16.07,16.28-27.91,18.68-8.64,1.76-17.12,1.49-25.28-2.21-1.59-.7-2.71.48-4,1-7.11,1.18-13.66-.73-20-3.65a4.67,4.67,0,0,1-2-2.3C385.42,153.48,385.54,154.8,385.18,154.53Z" style="fill:#26344a"/><path d="M773.63,624.18c-3.45,4.08-8.3,4.5-13,4.54-16.77.17-33.54.08-50.31.1A5,5,0,0,1,707,628c-1.93-.92-2.2-2.83-2.44-4.56-2.08-14.81-3.85-29.65-5.63-44.5-1.45-12.16-2.8-24.33-4.28-36.49-.24-2-.45-3.85,1-5.51a3.85,3.85,0,0,1,2-.89c9.06,1.23,18.18.52,27.27.73,1.52,0,3.12-.21,4.34,1.07,11.88,0,23.76.27,35.64,0,3.82-.1,7.68-.73,11.55-.6,4.81.16,5.69,1,6.36,5.73a22.83,22.83,0,0,1,.12,3.1c0,15.49.23,31-.08,46.49-.17,8.2-.7,16.51-4.56,24.06C776.91,619.23,775.18,621.66,773.63,624.18Z" style="fill:#b7b9c6"/><path d="M207.6,566.64a44.23,44.23,0,0,0-8.36-7.41c-4.84-3.2-6.56-2.51-8.3,3a17.14,17.14,0,0,0-1,7.61c.79,5.12-.52,10-1.4,14.84a41.41,41.41,0,0,0-.49,7.69c0,1.35,0,2.85-1.34,3.36-3.34,1.27-6.68,3.17-10.45,1.33,2.38-11.77,3.63-23.71,5.53-35.56q4.59-28.68,9.05-57.39,4.41-27.93,8.82-55.86c2.38-15,4.91-30.07,7.07-45.15.54-3.82,3.32-2.35,5.17-3.14h26.75c3.41.41,6.84.07,10.26.18,1.35.05,2.88-.35,3.62,1.35.5,2-.09,3.82-.55,5.71q-15.1,61.74-31.48,123.17c-2.9,11-5.18,22.16-9,32.9C210.93,565,210.74,567.64,207.6,566.64Z" style="fill:#253249"/><path d="M170.27,324.24c-8.86-6.57-17.26-13.61-23.42-22.93-1.78-2.69-3.49-5.47-3.87-8.79-.82-7.28,3.77-11.35,10.9-9.71a28,28,0,0,1,9.82,4.47c1.7,1.19,3.38,2.38,5.09,3.55.73.5,1.46,1.37,2.4.92s.53-1.61.55-2.45c.2-7.11-1.2-14.19-.7-21.3.49-6.84,1-13.7,5-19.67,5.48-8.29,14.53-9.21,21.82-2.37,6.38,6,9,13.64,10.42,22,1.15,6.69.56,13.41.69,20.12,0,1.28,0,2.56,0,3.72,1.52.77,2.1-.38,2.86-.94,3.75-2.73,7.21-5.9,11.67-7.54a9.21,9.21,0,0,1,1.45-.56c3.73-.6,7.62-1.34,10.58,1.8s2.78,7.09,1.55,10.94a29.71,29.71,0,0,1-5.42,9.8c-6.06,7.42-12.51,14.48-21.22,19-1.16,2.12-3.25,1.71-5.11,1.82a63.37,63.37,0,0,1-7.29-.17c-7.81.41-15.62.21-23.43.15C173,326,171.21,326.06,170.27,324.24Z" style="fill:#356b8c"/><path d="M465.24,140.33a1.69,1.69,0,0,1,1.35-1.33c1.79,9.66,4.43,18.95,11.58,26.22a3.07,3.07,0,0,1,1.21,1.92c-.33,4.24.51,8.44.28,12.67-.11,2.19.77,2.93,3,2.51s6.48,3.47,6.61,5.75-3.32,4.58-7,4.67c-1.94,0-4.13-.37-3.69,2.79-1.23,8.62-5.52,15.53-11.93,21.23a17.75,17.75,0,0,0-3.09,2.85c-1.36,3-4.12,4.12-6.84,5.34-11.14,5-21.83,3.81-32.2-2.26a15.45,15.45,0,0,1-4.5-4.68,41.79,41.79,0,0,1-13.92-22.23c-.62-2.48-2.74-2.36-4.66-2.56a15.56,15.56,0,0,1-13.76-18.43,9.12,9.12,0,0,1,2.35-4.78c1-2,2.31-2.19,4-.94a28.27,28.27,0,0,0,5.9,12.7c.89,1.13,1.9,2.37,3.31.5a4.94,4.94,0,0,1,3-1.09c.89,0,1.31-.59,1.79-1.24a6.45,6.45,0,0,1,6.32-2.78,19,19,0,0,0,6.89-.29c.86-.24,1.92-.34,1.94-1.5a2.08,2.08,0,0,0-1.5-2c-4-1.77-4-1.85-1.72-5.3.51-.76.38-1-.16-1.45a1.76,1.76,0,0,1-.43-2.68,4.7,4.7,0,0,1,4-.81,38,38,0,0,0,24.09-3.78C455.49,155.22,462.27,149.38,465.24,140.33Z" style="fill:#fddfdc"/><path d="M660.83,206H813.72c6.46,0,7-.55,7.06-7.06q0-75.28,0-150.56c0-5.18,0-10.35.06-15.53,0-1.12-.39-2.6.89-3.14a4.34,4.34,0,0,1,4,.74c2.26,1.47,3,3.8,3.41,6.26a31.16,31.16,0,0,1,.2,4.64q0,81.69,0,163.38a57.2,57.2,0,0,1-.78,7.29c-.4,3.07-2.26,4.49-5.14,4.8a31.23,31.23,0,0,1-3.49,0c-48.12,0-96.24-.07-144.36.08-5.83,0-10.08-1.58-12.22-7.2C662.83,208.27,661.7,207.24,660.83,206Z" style="fill:#83a6b9"/><path d="M747.1,400.48l.9.07c2.66,1.05,2.19,3.47,2.42,5.57.26,2.36.82,4.05,3.76,2.46a3.33,3.33,0,0,1,4,.38l3,.05c3.92,2.84,4.38,7.46,5.6,11.53a73.93,73.93,0,0,1,3.33,20.11c-.67,4.61-3.79,8.09-5.7,12.12-5.77,12.21-12.67,23.86-18.24,36.16-7.2,15.93-15.26,31.47-21.51,47.83-1.73,1.39-3.66.78-5.55.58-2-1.55-1.7-3.78-1.33-5.72.77-4,.36-8,.58-11.94.19-3.32-1-5-4.52-5.18-1.61-.06-3.37.18-4.94-.62a2.86,2.86,0,0,1-1.45-2.85c.69-2.75,2.83-3,5.14-3,5.87.18,5.85.19,5.79-5.68-.07-7.08-.8-14.12-1.26-21.18-.23-3.58,1.49-6.76,1.87-10.2,1-2.12.45-4.5,1.11-6.67,2.66-7.95,5.45-15.86,10.83-22.52.91-1.12.69-2.39.39-3.69a31.83,31.83,0,0,1-.32-8.88,2.57,2.57,0,0,1,1.87-2.66c1.4-.31,2.11.75,2.64,1.81a16.38,16.38,0,0,1,1.75,7.27c3.25-3.47,6.63-6,9.64-8.94,2.33-2.27,3.39-5.3,2.09-8.16a40.51,40.51,0,0,1-3.44-15.7A2.71,2.71,0,0,1,747.1,400.48Z" style="fill:#316889"/><path d="M198.13,324.5l12.31-.26c3.09.06,6.19.25,9.28.13,2.58-.1,3.34.91,3.24,3.41-.33,7.6-1.36,15.14-2,22.72-.23,2.95-.45,5.91-.73,8.86-.21,2.09,1.09,2.31,2.66,2.31,5.68,0,11.36.07,17,.06q29,0,58.09-.07c4.73,0,4.84.12,4.88,4.7q.06,6.19.11,12.39c-1.32,1.19-2.94.79-4.45.8-15.48,0-31,.14-46.44,0-9.75-.09-19.52,1-29.28-.55-2.68-.42-5.58.76-8.43.56-5.25.81-10.53.29-15.79.3-2.33,0-3.48-2.53-1.94-5,2.45-3.86,1.68-7.78,1.56-11.92-.31-11.08-2.62-22.05-1.85-33.18C196.56,327.88,196.29,325.86,198.13,324.5Z" style="fill:#fcf3ef"/><path d="M661.2,379.57c-2.73,1-5.59.66-8.4.68-5.66,0-11.33,0-17,0a10.68,10.68,0,0,1-4.51-.77c-3.52-.22-4.42-2.81-5.09-5.61-1.35-2.27-.93-4.75-.84-7.18a37.09,37.09,0,0,1-.1-7.74c-.2-5-.21-9.94-.14-14.91,0-1.8,0-3.6,1.57-4.92,0-.25.07-.51.08-.77.27-7.73.27-7.72,7.88-7.71,8.64,0,17.27,0,25.91,0,4.23,0,4.53.31,5.06,4.49.15,1.18.09,2.54,1.77,2.35,3.75-.4,7.18.66,10.58,2a10.06,10.06,0,0,1,4.28,6.73c.92,2.84-.16,5.49-.74,8.19a5.92,5.92,0,0,1-1.8,3.18c-2.41,3.21-5.51,5.31-9.6,5.59-2.63.17-3,1.92-3.11,4a12.67,12.67,0,0,1,.19,2.38c-.35,2.48-.37,5-1.84,7.22C664.33,378.33,663.25,379.64,661.2,379.57Z" style="fill:#fcf3f0"/><path d="M343.34,294.88c4.8-.43,5.38.3,3.75,4.72-.53,1.44-1.12,2.88-1.69,4.31-.4,1-.65,2.19.36,2.83,2.64,1.68,1.85,3.95,1.26,6.19-.77,2.89-.25,6.17-3.06,8.45a2,2,0,0,0,.49,3.32c1.3.8,2.15-.08,2.8-1.17s.92-2.19,2-2.79c1.95-1.08,2.19-2.85,1.71-4.68a26.94,26.94,0,0,1-.69-12.93c.46-2.09-.44-4.28-.76-6.41-.8-5.29-.8-10.67,3.22-15a1.6,1.6,0,0,1,2,.94,5.26,5.26,0,0,1,0,3.07c-2.11,5.29-.64,10.64.13,15.86.85,5.76.13,11.49.67,17.21-.12-.62-.16-1.26.58-1.54a2.49,2.49,0,0,1,1.87,2.25c.63,6.27,1.49,12.53,1.65,18.84a3.19,3.19,0,0,1-.41,1.47,20.06,20.06,0,0,0-7.43,6c-1.68,2.15-4.66.3-6.9,1.25-5.11-.65-9.61,1.23-13.08,2.81a23.15,23.15,0,0,1,14.9-2.51c1.13.22,2.53,0,2.86,1.42s-1,1.6-1.87,2.14c-6,3.87-9.23,9.07-8.69,16.49a16.22,16.22,0,0,0,3.9,9c.73.94,2.4,1.33,1.87,3l-23.94.15-.64-.18c-9.66-7.34-10.29-16.82-6.65-27.43a85.64,85.64,0,0,1,5.58-12.34c7-13.25,14.07-26.44,21.08-39.68a39.92,39.92,0,0,0,1.71-4.29C342.25,295.08,342.47,294.34,343.34,294.88Z" style="fill:#3e6181"/><path d="M198.13,324.5c-.6,13.56,1.25,27,2.2,40.44.25,3.57,1.09,7.34-2.15,10.55-2.07,2-.83,4,2.33,4,4.65.08,9.3,0,13.94,0-1.34,1.1-2.94.7-4.45.73-12.57.22-25.11-1.27-37.7-.75-1.79.07-3.6-.06-5.3.69q-1.71-12.81-3.41-25.62c-1.17-8.93-2.3-17.87-3.47-26.81-.32-2.46.59-3.58,3.2-3.43,2.31.12,4.63-.07,7-.12Z" style="fill:#efe4e0"/><path d="M159.61,139c3.86,0,7.71,0,11.57,0,1.38-1.78,3.37-1.62,5.31-1.74,7.9-.47,15.74.73,23.62.75,9,0,18.09-1.55,27.12-.64,11.76,1.18,23.52.39,35.28.63,4.64.09,9.23-1.19,13.92-.64,1.57.18,3.11.18,4.23,1.5,3,.07,5.95,0,8.91.24,1.83.15,4.05,0,4.39,2.75.37,3-.85,5.32-3.54,6.09a12.4,12.4,0,0,1-3.45.32H88.21a13,13,0,0,1-5.33-.83,3.83,3.83,0,0,1-2.33-4.43,3.53,3.53,0,0,1,3.56-3.37c6.28-.54,6.24-.62,6.26-7,0-7.24.09-14.49.15-21.73,1.14-1.5,1.74-.65,2.27.52.23,6.93,0,13.87.1,20.8.06,5.48.41,5.79,6,5.81,1.94,0,3.82-.4,5.75-.45a9.26,9.26,0,0,0,3,.13c.4-.08.8-.17,1.19-.27a53.41,53.41,0,0,1,11.79.2,9.52,9.52,0,0,0,3.49.07,23.72,23.72,0,0,1,6.56-.46c5.15-.06,5.37-.26,5.41-5.56,0-4.91-.05-9.82,0-14.74,0-1.66-.07-3.41,1.55-4.56,2.34.19,2,2,2,3.48.09,5,0,10.09,0,15.14,0,2,0,3.9,1.27,5.54a16.33,16.33,0,0,0,11.28-.25C153.78,134.81,155.68,138.92,159.61,139Z" style="fill:#5c839b"/><path d="M122.42,44.73l25.12.17c5.76,0,7.37,1.61,7.36,7.34q0,28.23-.13,56.47c-.48,1,0,2.44-1.32,3.11-4.81,1.08-9.6,1.67-14.3-.5-.92-1.41-.55-3-.55-4.53q0-26.16,0-52.33,0,26.39,0,52.77c0,1.38.35,2.86-.66,4.11a19,19,0,0,1-14.27.17c-1.37-1.38-.95-3.14-1-4.77,0-11.23-.16-22.46,0-33.68.16-9-.52-18-.87-27A1.9,1.9,0,0,1,122.42,44.73Z" style="fill:#557291"/><path d="M741,537.11l-11.53.18c-1.57-.14-3.91,1.78-4.28-1.59,4.57-11.76,10-23.15,15.39-34.53s10.49-22.61,16.36-33.61c1.43-2.67,2.51-5.59,4.91-7.66,7.82-1.23,15.33-3.95,23.19-4.95,2-.25,5.29-1.06,5,3.11-.07.47-.14.95-.22,1.43a18.32,18.32,0,0,1-7.59,3.51,6,6,0,0,0-4.33,3.36c-.91,1.91-1.68,4.1-4.16,4.7-.25.07-.59.28-.56.47.6,3.61-2.47,6.31-2.41,9.78-.3,1.73-1.28,3.34-.9,5.18,3.29.88,3.67,3.91,4.68,6.43,1.37,3.42,1.4,3.49,3.85,1,1.73-1.75,3.83-3,5.58-4.74,2.06-2,3.35-4.05,2-7.15-.91-2.17-.47-4.15,2.52-4.35,5,3.31,6,5.67,4.66,11.51-.46,1.95,1,2.76,1.68,4,1.1,2,3.36,3.88,1.19,6.52a4.19,4.19,0,0,1-.63.19c-2.61.44-3.73-1.62-4.78-3.23-1.92-2.92-3.8-2.55-5.88-.44-3.36,3.4-6.92,6.58-10.59,9.63-10.24,8.53-19.1,18.45-28.46,27.87A13.81,13.81,0,0,1,741,537.11Z" style="fill:#38708f"/><path d="M280.66,138.78c-16,1-32,1-48,.61-8.9-.2-17.77-.13-26.67,0-11.6.19-23.22-.29-34.82-.48,0-4.39.15-8.79,0-13.17-.12-2.74,1.1-3,3.25-2.46,1.09-1.67,2.85-1.61,4.51-1.6,20.48.1,41-.51,61.44.33,3,.12,5.9-.59,8.86-.17,1.75,0,3.5-.1,5.25,0,4.33-.36,8.67-.22,13-.19,1.68,0,3.36,0,4.53,1.55l6.12.13c1.3,0,3,.09,3,1.6.05,1.76,2,3.82-.44,5.38-1.35,1.77-4.33,1.91-4.68,4.69a2.5,2.5,0,0,0,2,.76C280.25,135.64,280.87,136.84,280.66,138.78Z" style="fill:#a7c4d3"/><path d="M749.63,368.66V371a2.27,2.27,0,0,1,0,3.1l0,1.58c.61,1.05.83,2.08-.15,3.06-1.61,1.17-3.48.78-5.25.78q-36.8.08-73.6.11c-1.64,0-3.36-.39-4.92.55-1.48-.34-3.12.58-4.48-.6,3.13-2.61,4.38-6.07,4.58-10,1.06-.78,2.24-.35,3.38-.34,19.23.15,38.47,0,57.7-.15-4.79-.28-9.6-.24-14.4-.24-13.55,0-27.11,0-40.67,0-2.14,0-4.48.41-6-1.74,0-.64,0-1.29-.1-1.92-.43-2.78.47-3.92,3.5-3.56,4.05.48,7-1.89,9.74-4.53,5.39-.59,10.79-.26,16.19-.22,15.13.11,30.25.06,45.38,0,1.53,0,3.14-.34,4.39.94,3.65.79,4.69,3.38,4.66,6.73C749.51,365.89,749.59,367.27,749.63,368.66Z" style="fill:#526f90"/><path d="M249.58,123.25l-75.19,0c-3.82-5.4-2.71-11.33-1.45-17.06.62-2.83,3.73-2.83,6.16-2.92,4.89-.17,9.79-.18,14.68-.26a4.51,4.51,0,0,1,3.44-1.52c13.7-.1,27.4-.27,41.1.1a3.7,3.7,0,0,1,1.46.44c2.06,1.25,2.2,3.31,2.17,5.39-.06,3.46-.13,6.91-.06,9.54-.39-3.59.28-8,.67-12.35a3,3,0,0,1,1.21-2.31c2.23-1.11,4.35-1.13,6.33.54,2.36,5,.86,10.34,1.19,15.52C251.4,120.19,251.28,122,249.58,123.25Z" style="fill:#5b7694"/><path d="M790,458.06c-1.15-2.74-3.5-1.67-5.31-1.42-3,.41-6,1.32-9,2-4.53,1-8.94,2.79-13.73,2.43-1.28-1.18-.5-2.25.07-3.45,3.45-7.18,7.54-14,10.91-21.24,5.84-12.49,13.85-23.74,20.18-35.95,2.14-4.12,4.93-8,7.12-12.14l.54-.21c2.22,2.86,2.74,6.33,3.37,9.73a75.39,75.39,0,0,1,.59,26.12,18.41,18.41,0,0,1-4.15,9.44c-5.92,6.7-9.66,14.25-10,23.32C790.59,457.15,790.18,457.6,790,458.06Z" style="fill:#437897"/><path d="M131.24,561.17c2.62-4.9,5.19-9.81,5.95-15.44a18.8,18.8,0,0,0-1.59-10.93c-3-6.26-9.54-7.5-14.75-2.89-1.93,1.71-3.65,3.66-5.55,5.41-3.47,3.19-6.43,3.61-9.35,1.46s-3.76-6-1.64-9.73c4.8-8.47,12.1-13.73,21.77-15.11,14.4-2.05,23,8.33,25.62,18.55,3,12,.74,23-5.67,33.39-4.83.19-9.2-1.86-13.78-2.88A1.43,1.43,0,0,1,131.24,561.17Z" style="fill:#fbf1ef"/><path d="M253.23,316.71l1.47-.11c1.13-1.12,2.23-.83,3.32.08,15.28,3,19.58,18.83,18.07,30.59-.44,3.43-.87,6.88-1,10.34-.13,2.51-1.25,3.36-3.63,3.34-7.86-.07-15.72,0-23.58-.05-4.51-2.36-4.06-7-4.51-10.9a58.58,58.58,0,0,1,2.41-24.5C247,321.49,249.14,318.28,253.23,316.71Z" style="fill:#5184a1"/><path d="M249.63,103.23l-6.21.07a2.18,2.18,0,0,1-3.08,0l-41.9-.16c-1.56,0-3.11,0-4.66-.08,0-16.15,0-32.3-.1-48.45,0-3,1.22-4.24,4.1-4.23,15.9,0,31.79,0,47.68.06,4.53,0,4.86.59,5,6.13,1.65,1.1,1.6,2.83,1.62,4.49.09,12.46.07,24.92,0,37.37a7.71,7.71,0,0,1-1.09,4.42A1.2,1.2,0,0,1,249.63,103.23Z" style="fill:#c5c9d0"/><path d="M550,268.35,549.92,309c0,.9,0,1.81,0,2.71,0,.74.2,1.72-.73,2s-1.6-.62-2.07-1.36a38.94,38.94,0,0,1-2.74-4.66c-3.46-7.75-8.1-14.9-11.67-22.56-4.23-9.08-9.89-17.38-14-26.49a16.35,16.35,0,0,0-2.54-3.38,6.56,6.56,0,0,1-1.88-4.53c5.16,0,10.32-.09,15.47-.15,8-.09,13.75,3.64,17.43,10.64C548.34,263.49,549.64,265.74,550,268.35Z" style="fill:#384963"/><path d="M92,111c-.45-.67-1-.22-1.47-.09,0-19.26-.06-38.53,0-57.79,0-5.46,1.83-7.18,7.22-7.32,1.16,0,2.33,0,3.49,0,4.5,0,.72-.24,4.63,0,1.11-.11,1.26,1.36,1.67,2.2.68,1.41,1.65-2.38,1.65-.81,0,21.27.3,42.53-.14,63.8.4,7.81.18,15.63.16,23.45,0,1.71-.19,3.35-1.67,4.51l-.35-.13a2.3,2.3,0,0,1-1.51-2.45c.06-8-.52-16,.31-23.92.64-1.35.38-2.8.38-4.2q0-27.9,0-55.79c0-1.17-.26-2.42,0-3.14-.2,20.52.1,41.38-.16,62.24C101.43,113.15,96.65,113.71,92,111Z" style="fill:#456889"/><path d="M106.92,111.61q0-30.57,0-61.14c0-3-.17-5.94-.17-8.65.49-2.41.66-3.43,3.15-3.3,2.32.11,4.65-.06,7,0,4.39.08,4.48-.39,4.88,5-.07.12-.06,2.11-.12,2.23.71,20.43.34,40.87.41,61.31,0,1.64.43,3.39-.76,4.87C116.45,113.89,111.65,114.35,106.92,111.61Z" style="fill:#5481a0"/><path d="M112.05,642.78c3.75,4,7.59,8,13.16,9.46,4.2,1.11,8.39,1.32,12.4-.92,6.12-3.42,12.82-4.5,19.72-4.61,5.17-.08,10.35-.09,15.52,0a43.87,43.87,0,0,0,9.22-.89c5-1,6.17-.35,8.47,4.31.69,1.39,1.48,2.75,1.35,4.39-2.62,2.65-5.84,1.33-8.86,1.35a97.59,97.59,0,0,1-10,.22c-3.12-.16-5.62.43-6.32,4a2,2,0,0,1-1.35,1.28c-.78,2.54-1.15,5.19-3.37,7.18-3.48,3.11-7.33,3.11-10.47-.42-1.45-1.63-2.72-3.42-4.07-5.14-4.44-4.17-4.44-4.16-9.54-.17a5.92,5.92,0,0,1-1.33.73l-1.48,2.48a4.66,4.66,0,0,1-3,1.57c-2.67.14-5.36.08-7.93,1.05a2,2,0,0,1-2.29-1l-3.18-4.64C115.88,656.5,113.16,649.91,112.05,642.78Z" style="fill:#eae0dd"/><path d="M769,440.89c-1.59-10.41-2.73-20.93-7.94-30.4-.19-.35.1-1,.16-1.48,1.09-1,2.56-1.17,3.87-1.64,7.54-2.71,11.31-8.1,11.66-16,.42-9.36,4.43-12.37,13.57-10.37,4.48,1,9,1.87,10.5,7.12h0c-3.08,6-7.52,11.27-10.37,17.43a44.7,44.7,0,0,1-4,7c-5.57,7.93-9.62,16.69-14.06,25.25C771.61,439.19,771.2,441.09,769,440.89Z" style="fill:#437796"/><path d="M131.24,561.17c3.34,1.37,7,1.32,10.43,2.43,1.6.52,3.23.9,4.36,2.28-2.69,5.69-6.55,10.66-10,15.86a84.09,84.09,0,0,0-9.36,17.62c-.56,1.51-1.51,3.09,0,4.62-3.43,3.43-7.36,6.29-10,10.53a31.15,31.15,0,0,0-4.75,17.58c0,2.57-.05,5.14-.08,7.72-.12-.23-.37-.46-.35-.67.69-8.69-2.49-17-2.68-25.58-.25-11.53,2.92-22.16,8.42-32.1A133,133,0,0,1,131.24,561.17Z" style="fill:#eee3df"/><path d="M511.05,379.44c-8.52.05-17,.12-25.56.13q-56.76,0-113.51.06c-2.32,0-4.64-.16-7-.24a15.75,15.75,0,0,1-3-1.16c-3,.57-5.65-.76-8.4-1.39-1.53-.35-3.74-1.12-1.91-3.63,3.42-1.61,7-.33,10.53-.74,12.29-.75,24.53.88,36.82.73,15.65-.19,31.31-.07,47,0,7.24,0,14.47-.54,21.68-.62,10.94-.12,21.92-.46,32.85.58,4.54.43,9-.91,13.53-.51,5.3-.06,10.63-.93,15.87.58,2,3-.85,3-2.28,3.14-3.58.45-7.21.14-10.82.2-1.69,0-3.42,0-4.25,1.94A3.67,3.67,0,0,1,511.05,379.44Z" style="fill:#4f6f8f"/><path d="M467.66,231.87c2.28,1.86,1.72,4.1.76,6.32-1.92,4.49-5.45,7.5-9.57,9.82-10.24,5.76-26.39,4.4-35.58-2.9a21.74,21.74,0,0,1-5.93-7.57c-.85-1.73-1.55-3.63-.09-5.47,1.29-.51,2.71-.71,3.76-1.72,2-1.42,3.73-.3,5.46.49,4.8,2.19,9.25,5.23,14.67,5.92a25.66,25.66,0,0,0,17.65-4c1.69-1.08,2.89-3.62,5.6-2.24A7.76,7.76,0,0,0,467.66,231.87Z" style="fill:#fbdfda"/><path d="M726.16,535.62c-.14,3,2.33.83,3.28,1.67-.07.2-.15.39-.22.58-9.24,0-18.47,0-27.7,0-1.4,0-2.84.22-4.14-.53,1.46-2.37,3.87-1.67,6-1.71,7.83-.15,7.64,0,5.45-7.74-4.83-17-10.5-33.72-16.63-50.29-1.29-3.48-1.7-7.27-4-10.36-1.57-5.49-1.75-11.21-2.26-16.82-1.09-12.07-2.56-24.1-3.52-36.18-.1-1.3-.35-2.56.3-3.78,2.33-2.35,4-.47,5.48,1a20.2,20.2,0,0,1,4.55,8.85q2.16,7.8,4.22,15.63a34.69,34.69,0,0,0,5.42,11.46c.89,1.25,2,2.42,2,4.1-.41,2.95-3,3.67-5.09,4.78-9.2,4.83-7.92,3.73-4.38,12.5,5,12.3,9.51,24.78,13.48,37.46.5,1.59-.25,3,0,4.55a3,3,0,0,0,.75,2.35,8.54,8.54,0,0,1,2.83,4.92c1.13,4.09,2.36,8.15,3.31,12.28.64,2.77,1.66,5.1,4,6.72,1.64-.24,3.74,1,4.68-1.44A1.54,1.54,0,0,1,726.16,535.62Z" style="fill:#5486a4"/><path d="M343.34,294.88l-1.42.73c0-9.92-.92-19.85.65-29.73,1.25-7.83,7.38-15.93,18.26-15.38,3,.15,5.94,0,8.9-.06-1.1,1.22-2,2.56-3.59,3.38-3.79,2-14.33,19.65-13.39,23.41.25,1-.66,1.25-1.12,1.82-3.68,4.65-6,10.05-8.28,15.44A1.67,1.67,0,0,0,343.34,294.88Z" style="fill:#384963"/><path d="M681,346.2l-3-6.66c20.9-.66,41.81-.2,62.72-.18,5,0,5.9,1.09,5.76,6.05-.1,3.38,1,7-1.6,10-1.18.84-2.17.38-3.09-.47a3.42,3.42,0,0,1-.73-1.35c-1.09-5-1.09-5-6.36-5-15.24,0-30.48,0-45.73,0C686,348.58,683.29,348.23,681,346.2Z" style="fill:#436b8b"/><path d="M464.39,230.51c-4.24,3.49-8.6,6.38-14.26,7.61-6.22,1.35-11.76.3-17.25-2.19-4-1.81-7.7-4.17-11.87-5.58,0-4.14.25-8.3-.93-12.34,5.86,3.49,11.59,7,18.66,8,7.6,1.09,14.32-.85,20.76-4.36,1.36-.74,2.76-1.36,4.12-2.07C464,223.23,463.21,226.94,464.39,230.51Z" style="fill:#fab4ae"/><path d="M253.23,316.71c-10.41,12.47-9.54,26.77-6.66,41.38a13.29,13.29,0,0,0,1.27,2.81c-3.21,0-6.43,0-9.65.06a3.09,3.09,0,0,1-3.46-2.38c-2.54-8.24-3.53-16.68-1.89-25.14C234.76,323.56,243,317.07,253.23,316.71Z" style="fill:#417a99"/><path d="M749.5,25.09v18.7c.83,3.1,0,4.78-2.89,5.22a35.47,35.47,0,0,1-10.34,0c-2.89-.42-4.38-2.48-4.73-5.29a38.55,38.55,0,0,1,0-7.67c0-3.7-1.08-7.55,1.38-11l.12-2.71c.24-5.53,2.87-8.21,8.1-8.24s7.91,2.8,8.21,8.22C749.41,23.28,749.45,24.19,749.5,25.09Z" style="fill:#4e7293"/><path d="M626.7,339.16q0,10.11,0,20.22c-5,1.68-10.16.82-15.26.5a2.24,2.24,0,0,1-1.72-1.41c-3.67-1.87-3.37-5.25-2.94-8.45a38.93,38.93,0,0,0,.64-7.3c-.14-2.72,1.21-3.65,3.78-3.6C616.35,339.21,621.52,339.16,626.7,339.16Z" style="fill:#839cb2"/><path d="M774.37,518.53a82.17,82.17,0,0,1-6.17,14.6c-1.54,2.79-3.49,4.4-7.05,4.18-5.66-.34-11.36-.14-17-.17a1.84,1.84,0,0,1,.55-2.41c7.31-6.86,13.5-14.82,21.13-21.36,1.81-1.54,3.53-2.68,5.82-1.17S775.63,515.47,774.37,518.53Z" style="fill:#427898"/><path d="M796,499.75c0-3.28-2.22-5.4-4.19-7.59-1-1.15-2-2.07-.38-3.48,2.52-2.19,1.56-4.38-.21-6.4a16.14,16.14,0,0,1-2.86-4.11c-.3-.3-.82-.38-.89-.9,7.12-3,14.35-2.2,21.64-.72,2,.41,2.19,1.29,2,3.25C810.06,489.55,804.41,495.66,796,499.75Z" style="fill:#5b8daa"/><path d="M774.37,518.53c.09-3.15-2.6-4.2-4.49-5.8-.8-.67-1.7,0-2.37.67-8,7.68-15.93,15.51-23.41,23.74l-3.13,0a4.78,4.78,0,0,1,.45-.63c5.7-6,11.48-11.89,17.16-17.89a253.06,253.06,0,0,1,19.58-18.16c2.83-2.42,5.27-5.26,8.22-7.6,1.76-1.39,2.55-1.05,3.61.55a36.73,36.73,0,0,0,5.37,6.56l-13.91,10.24C778.43,512.41,775.78,514.94,774.37,518.53Z" style="fill:#5289a8"/><path d="M272,123.23H254.37a3.85,3.85,0,0,1-1.64-2.92c-.23-4.75-.2-9.5,0-14.25.06-1.9,1-2.6,3-2.57,3.7,0,7.43.41,11.13-.23,5.88.94,6,1.69,6.14,7.65A76.91,76.91,0,0,1,272,123.23Z" style="fill:#546f8e"/><path d="M250.3,103.08q.07-23.26.16-46.52c4.52-1.17,6.81.09,6.86,4.35.15,12.67,0,25.34.15,38,0,2.15-2,2.56-2.35,4.16C253.52,103.54,251.91,104.7,250.3,103.08Z" style="fill:#85a4b8"/><path d="M406.19,182.17c-.76.76-1.5.37-2.23,0-5.29-2.51-8.41-6.81-10.15-12.26-1.3-1.78-2.49-.22-3.72.14-3.4-3.15-4-7.46-4.79-11.66a24.28,24.28,0,0,1-.12-3.82c.09-.76.19-1.52.23-1.85,6.43,5.75,14.39,6.36,22.53,6.34,1.2,1.22.86,2.58.29,3.92A22.09,22.09,0,0,0,407,176.45C407.36,178.29,408.24,180.52,406.19,182.17Z" style="fill:#232c41"/><path d="M742.55,354.69l2.31.76v2.33a21.17,21.17,0,0,1-6.49.79q-22.08,0-44.17,0c-3.72,0-7.43-.5-11.16,0A4.18,4.18,0,0,1,678.9,357a4.49,4.49,0,0,1,1.31-2.4c1.36-1.44,3.13-1.64,5-1.65q26-.08,51.94,0A8.94,8.94,0,0,1,742.55,354.69Z" style="fill:#647e9b"/><path d="M478.64,195.53c-.61-.18-1.48-.39-1.09-1.17a3.1,3.1,0,0,1,3.07-2,7.76,7.76,0,0,0,6.28-2.27c.66-.62,1.6-1,1.44-2.08a2.12,2.12,0,0,0-2.26-1.72c-1.51,0-2.15,0-1.26-1.8.74-1.56-.91-1.37-1.83-1.47-4.49-.48-4.6-.47-4.47-4.89.12-3.69-.77-7.47.86-11,1.17,1.4,1,3,.71,4.62,1,3.44-.38,7.05.76,10.47,3.19-1,4.61-3.38,5.28-6.44.36-1.62.78-3.23,1.22-4.83,1-3.8,2.28-4.27,5.5-2a17.54,17.54,0,0,1,1.94,1.83c2.72,6.85,1.79,13-3.38,18.44a12.08,12.08,0,0,1-8.89,4C480.62,193.17,479.3,193.7,478.64,195.53Z" style="fill:#f5e4e9"/><path d="M609.7,358.47l12.55.15c1.52,0,3.06-.16,4.43.76l.12,7.72c-1.22,1.45-2.73,1.51-4.54,1.38-4-.3-8-.59-12,.27a19.71,19.71,0,0,1-2.41.35,11.19,11.19,0,0,0-7.08,3.67l-.52-.14c0-2.43.05-4.87.09-7.31.09-5.19,1.11-6.3,6.23-6.7C607.64,358.54,608.67,358.52,609.7,358.47Z" style="fill:#406686"/><path d="M787.46,477.27l.89.9c-1.61.36-2.08,1.12-1.33,2.76,2.69,5.84,1.85,5.48-3.34,10.57-1.79,1.76-3.92,3.21-5.67,5.1-2.58,2.8-3.28,2.58-4.37-1-1-3.17-1.83-6.38-3.85-9.11C775.58,483.24,781.15,479.55,787.46,477.27Z" style="fill:#4e84a2"/><path d="M511.05,379.44c.25-.27.5-.54.74-.82,1.16-1.61,2.91-1.46,4.57-1.48,4.51-.06,9,0,13.53,0,4.14,0,6.67-1.95,8.15-5.8,2.39-6.2.87-11.67-2.84-16.7-2.48-3.36-8-4.36-11.88-2.46a11.36,11.36,0,0,1-2.2.73,4.23,4.23,0,0,1-4-1.72c-.69-1.7.23-2.71,1.65-3.25,3.57-1.35,7.22-2.22,11-1A25,25,0,0,1,550,348.6a13.62,13.62,0,0,1,2.29,1.45c1,.83,3,1.66,1.76,3.22-1.07,1.38-2.35-.33-3.28-1-5-3.38-10.41-4.22-16.12-3.76a1.12,1.12,0,0,0,.38,1.53c9.62,7.71,11.14,16.59,4.57,26.86-.48.75-1.2,1.38-1.21,2.37C529.26,379.8,520.15,379.66,511.05,379.44Z" style="fill:#24364e"/><path d="M363.45,377.37c0,1.08.91,1.46,1.57,2a184.67,184.67,0,0,1-20.24,0c-10.43-6.8-9.53-23.81,4-30.69-7-.66-13.34,0-19.06,3.87-.86.59-2,1.91-2.89.3-.77-1.36.63-2.13,1.58-2.67,5.11-2.87,10.35-5.38,16.48-4.81,2.37.43,4.7,1.08,7.19.79,1.72-.2,3.72.08,3.95,2.16s-1.77,2.17-3.24,2.64c-9.5,3-14,13.5-9.19,21.45a7.91,7.91,0,0,0,5.39,4A59.43,59.43,0,0,0,363.45,377.37Z" style="fill:#213953"/><path d="M732.94,25.11,733,36c-.74.76-1.65,1.52-2.68,1.33-3.76-.68-7.46.69-11.16.23-9.38-1.19-18.79-.4-28.19-.71-1.88-.06-4,.34-5.28-1.62a37.86,37.86,0,0,1,10.93-1.61c7.2-.29,14.47.81,21.6-.82,2.56-.59,5-2.07,7.56.13.87.75,2-.07,2.59-1a4.05,4.05,0,0,0,.46-4c-.65-1.44-1.82-1.93-3.46-1.91-4.75.06-9.5-.07-14.25-.12a3,3,0,0,1-2.13-.76Z" style="fill:#a3bfcb"/><path d="M770.69,481.31c-1.51-.3-2-1.11-1.15-2.47,1.54-2.57,2.77-5.06,1.27-8.23-.6-1.27.29-2.9,1.91-1.58,1.79,1.45,2.17.35,2.73-.88s1-2.38,1.44-3.57a4,4,0,0,1,3.72-2.81,12.26,12.26,0,0,0,5.08-1.71,4.92,4.92,0,0,1,4-.57c-1.94,4.71-6,7.38-9.87,10.21-.78.22-1.56.45-1.6,1.48a3.47,3.47,0,0,1-1.51,1.61c-1.56.85-2.93,1.87-3.17,3.82A10.44,10.44,0,0,1,770.69,481.31Z" style="fill:#437897"/><path d="M250.3,103.08a10.75,10.75,0,0,1,4.82,0l11.66.19c-3.23,1.29-6.6.51-9.89.58-2.14,0-2.83.53-2.72,2.84.27,5.5.16,11,.2,16.55l-4.79,0q0-10,0-20A3.82,3.82,0,0,1,250.3,103.08Z" style="fill:#7393b2"/><path d="M258,316.68l-3.32-.08c-1.38-5.34-1.86-10.89-3.51-16.18-.29-.91-.34-1.93.83-2.19s1.48.92,1.66,1.71c.94,4,1.77,8,2.63,12.05.18.85,0,1.85,1.16,2.46,3.3-4.75,7.72-8.5,11.78-12.58.75-.75,1.62-2.28,2.81-1.14s-.47,1.93-1.16,2.63C266.58,307.77,261.88,311.82,258,316.68Z" style="fill:#3f6982"/><path d="M748.74,400.31c2.08.64,4.7-.68,6.29,1.74.43,2.58,3.28,4.07,3.12,6.91-2.24.79-4.66.9-6.43,3-1.5,1.81-1.88.14-2.25-1.26-.91-3.34-.21-6.91-1.47-10.19Z" style="fill:#5087a5"/><path d="M775.12,660.67h-.38c-2.16-.06-4.64.45-5.53-2.35-.54-1.71,1.89-3.79,5-4.43a10.83,10.83,0,0,1,5,0c1.58.43,2.81,1.28,2.84,3.19a3.09,3.09,0,0,1-2.74,3.25,30.93,30.93,0,0,1-4.22.4Z" style="fill:#709ab4"/><path d="M790.32,661.4c-3.25,0-5.1-1.42-5.07-3.89s2-3.83,5.18-3.78,6.23,2,6.28,4S794,661.39,790.32,661.4Z" style="fill:#7199b1"/><path d="M276,135c-1.62-4.37-1.09-4.91,4.68-4.69C282.07,134.49,281.52,135,276,135Z" style="fill:#598ca5"/><path d="M154,111.1a3.8,3.8,0,0,1,.77-2.39L155,131c-.62,2.32.51,4.84-.85,7.07-1.59-.91-1.66-2.48-1.69-4-.14-6.27-.11-12.54,0-18.81C152.47,113.69,152.63,112.17,154,111.1Z" style="fill:#385d71"/><path d="M773.59,476.61c-.58-2.63,1.07-3.41,3.17-3.82Z" style="fill:#38708f"/><path d="M778.27,471.18l-2.61-.57c1.1-2.07,2.75-1.08,4.21-.91Z" style="fill:#38708f"/><path d="M653.4,462.65a21.22,21.22,0,0,0-1.77-6.24c-4.42-7.41-4.87-16-6.66-24.07-.5-2.26-1.25-4.44-1.76-6.68-.36-3.15-1.7-6.13-1.76-9.34,0-3.4-1.26-6.47-2.31-9.61-.92-2.39-1.37-4.7,1.09-6.52,13.87-.05,27.75-.31,41.62.14a1.63,1.63,0,0,0,.63.28c2.78,2.77,2.53,5.91,1.11,9.19q1.23,12.46,2.47,24.94c.9,8.95,1.88,17.89,2.73,26.85a28.09,28.09,0,0,0,1,5.69c2.13,7.71,2.78,15.65,3.67,23.56,1.53,13.53,3.34,27.05,3.44,40.7a12.8,12.8,0,0,1-.84,5.68c.27,8.15,1.61,16.19,2.54,24.27,2.08,18.1,4.43,36.17,6.7,54.25.51,4.1,1.14,8.19,1.71,12.28.69,5,1.42,9.91,2.06,14.87.54,4.17,0,4.69-4.19,4.76-1.29,0-2.58,0-3.86,0-6.9-.06-7-.21-8.11-7.22-.62-3.91-1-7.88-2.32-11.64-2.43-1.68-2.53-4.43-3-6.9-5-26.86-11.18-53.47-17-80.16a11.32,11.32,0,0,1-.37-4.21c-.56-5.55-3.17-10.52-4.52-15.83-1.85-7.34-3.59-14.73-4.91-22.2-.14-.61-.21-1.24-.34-1.86-2.91-8.09-4.1-16.62-6.48-24.84A24.47,24.47,0,0,1,653.4,462.65Z" style="fill:#26334a"/><path d="M518.75,493.74c3.25,18.42,6.44,36.86,9.76,55.27,4,22.23,7.65,44.52,11.13,66.83.34,2.18-1,5.19,2.51,6.1,2.66,3.3,4.61,6.81,4,11.31a12,12,0,0,1-4.67,8.17,7.89,7.89,0,0,1-13.29.61c-6.79-6.31-7.22-12.42-1.4-20.06-.45-3.91-3.38-4.82-6.55-5.41-8.88-1.64-17.84-2.84-26.81-3.74-12.7-1.27-25.39-2.69-38.13-3.46-4.49-.76-7.47-2.83-7.37-8,0-2-1.21-3.86-1.65-5.84,0-3.86.61-4.44,5.6-5.45,5.71-.88,11.34.32,17,.81,11.16,1,22.3,2.21,33.42,3.62,5.12.65,10.18,1.61,15.3,2.26,4.28.53,4.78-.1,4-4.35-5.78-31.31-12-62.55-17.28-94-.35-2.11-1-4.33.14-6.46,3.84-2.6,8.16-1.7,12.33-1.57C518.72,490.53,518.36,492.47,518.75,493.74Z" style="fill:#263146"/><path d="M671,537.18c2.58,11.06,5.31,22.08,7.7,33.18,4,18.56,7.75,37.15,11.6,55.74a23.79,23.79,0,0,1,.24,2.69c-6,0-12.11.11-18.15,0a14,14,0,0,1-10.63-4.62c-2.57-5.39-5.21-10.56-6.62-16.64-2-8.46-1.82-16.79-1.9-25.22-.13-13.29,0-26.59,0-39.88,0-4.75.64-5.39,5.43-5.15,3.7.19,7.39,1.51,11-.19A.9.9,0,0,1,671,537.18Z" style="fill:#b6b9c6"/><path d="M355,621.83c6.41,4.16,7,16.76-2.33,21-2.82,2.62-5.74,2.94-9.31.92-1.21-.68-2.3-1.56-3.47-2.32a6.1,6.1,0,0,1-.93-1c-3.39-5.35-3.63-11-1.51-16.84,2.09-2.49,2.63-5.37,2.77-8.58a67.22,67.22,0,0,1,2.61-16.27,17,17,0,0,1,1.63-6.23,12.87,12.87,0,0,0,1.43-7.33,14.52,14.52,0,0,1,1.24-6.37c7.88-19.76,16-39.42,23.12-59.49a10.74,10.74,0,0,1,1.94-3.77c1-1.07,2-1.77,3,0,.57,1.69.1,3.34-.33,4.94-6.28,23.58-10.58,47.59-15.71,71.42-1.07,5-.77,5.4,4.38,4.83,8.45-1,16.84-2.36,25.29-3.35,6.27-.73,12.51-1.73,18.81-2.12,5.15.83,5.75,1.82,4.08,6.85a5.83,5.83,0,0,1-1.05,2.48c-2.48,2.35-1.7,4,1,5.43a2.76,2.76,0,0,1-1.21,3.3c-7.1,2.09-14.48,2.22-21.76,3.13-9.45,1.17-18.94,2.1-28.34,3.73C357.11,616.87,355.15,618.39,355,621.83Z" style="fill:#253147"/><path d="M338.59,624c-1.67,5.71-.66,11.17,1.62,16.5-.79,1.88-2.49,2.58-4.25,3.06-15.57,4.26-31.22,8.6-47.32,9.82-9.65.73-18.71-3.32-26.72-8.94-1.49-1.05-2.58-2.61-1.69-4.7,1.28-5.82,4.67-9.53,10.6-10.85,2-.44,3.54-2.09,5.63-2.42,3.17-2.68,6.06.13,9.16.49-1.5-1.79-5.75-1.16-4.45-5.21h0c3.21-1.22,5.87,1.11,8.8,1.35-.87-.68-2-1.05-2.95-1.69s-2.37-1.21-1.86-2.56,2.07-1.26,3.37-1.08c1.76.25,3.27,1.39,5.23,1.7-.39-1.35-1.42-1.44-2.1-2-1-.76-2.54-1.33-1.84-2.94s2.39-1.68,3.67-1c2.5,1.27,4.52.93,6.4-1.15-1.34-.9-3-.58-4.38-1.29s-3-1.44-1.22-3.37a7.09,7.09,0,0,1,5.23-.65c7.19,1.51,14.28,3.24,20.85,6.71,3.07,1.62,6.48,2.47,9.75,3.62,2.36.83,4.61,2,7.17,2.37C338.91,620.82,338.73,622.42,338.59,624Z" style="fill:#42607e"/><path d="M411.85,639.05l1.22-1.8c.38,0,.83-.33,1.12-.21,6.3,2.55,9.4-2.47,13.3-5.59.39-.31,1.12-.25,1.26-.74,1.21-4.24,3.45-5.65,7.28-4.08a14.65,14.65,0,0,0,6,1c1.44,0,3,0,3.8,1.33,1.51,2.49,3.52,1.9,5.63,1.25,1.91,6,2,12.33,2.9,18.51.27,1.89.39,3.81.79,5.69-.42,2.55-2.53,3.22-4.49,3.7-13,3.15-26.05,5.33-39.48,3.59-3.32-.43-6.73-.05-10-1-1.65-.5-3.29-.93-3.46-3.06-.48-5.43,2-9,6.93-11a18.18,18.18,0,0,0,3.94-2.29c3.17-1.1,6.46,1.19,9.6-.35.53-.19,1-.41.91-1.14-.74-1.54-2.27-.72-3.38-1.14C414.15,641.13,412.39,641,411.85,639.05Z" style="fill:#42607f"/><path d="M260.23,639.75A10.2,10.2,0,0,0,265,644.6a58.67,58.67,0,0,0,20.35,7.15c4.29.58,8.5-.45,12.67-1.23,14.21-2.65,28.35-5.61,42.15-10l-.08.06c4,3.84,1.74,5.82-3.16,9a17.35,17.35,0,0,1-5.49,1.84c-9,2.17-18,4.41-27.24,5.73-7.57,1-15.13,2.1-22.74.35a3.33,3.33,0,0,1-1.7-.81c-6-2.15-12.26-3.76-17.6-7.54a16,16,0,0,1-3.5-3C256.77,643.72,257.4,641.23,260.23,639.75Z" style="fill:#f6eeed"/><path d="M397.68,657.63c4.7,2.66,10,2.2,15,2.61a110.86,110.86,0,0,0,38.55-4.11,11.11,11.11,0,0,0,3.84-1.69c3.05,2.46,1.05,4.32-.72,6.21-.58,2.26-2.4,2.68-4.36,3.16-15.82,3.85-31.8,3.76-47.82,1.77-2-.25-4.87-.18-5.34-3.35C397,660.68,396.09,658.93,397.68,657.63Z" style="fill:#f2edec"/><path d="M304.3,655.9c8.87-2.06,17.75-4.09,26.62-6.17a50.09,50.09,0,0,0,4.8-1.46c5.55-1.89,5.55-1.92,4.41-7.7,3.93,2.15,7.9,4.08,12.56,2.31.32,1.31,1.31,1.8,2.32,1.12,3.51-2.37,6.83-.68,10.83.08a13.52,13.52,0,0,1-9.18,3.39c-4.52-.08-9,0-13.55,0-2.41,0-3.86.73-2.69,3.49.85,2-.5,2.34-2,2.8-5.7,1.72-11.64,2-17.47,3-4.42.73-8.91,1.06-13.38,1.56C306.4,657.6,304.58,657.8,304.3,655.9Z" style="fill:#5a87a0"/><path d="M418.07,621.18a3.07,3.07,0,0,0,1.9-.95c7.27,3.82,15.6,2.66,23.2,4.92,1.08.32,1.72-.09,2-1.21s.36-2.35,1.64-2.89c1.77-.23,3.15.69,4.56,1.54l.09,7.65c-.55.87-.91,2-1.69,2.53-1.24.82-2.77,1.65-3.65-.71-1.08-2.9-3.38-3.62-6.28-3.27a5.06,5.06,0,0,1-3.74-.56c-2.58-1.87-4.56-.51-6.51.93-.2,1.72,2.11,1.17,1.92,2.94a5.56,5.56,0,0,0-3.58-.16c-2.74.62-5.51-.23-8.32.28-2,.36-2.25-2.1-3.18-3.39C416.39,626.16,417.85,623.8,418.07,621.18Z" style="fill:#3f526b"/><path d="M396.87,662.23c2.72,2.38,6.2,2.56,9.46,2.8,14.68,1.06,29.33.89,43.71-2.86,1.48-.39,2.9-1,4.35-1.52l3.79,2.43c-4.5,2.5-9.21,2.86-13.67,3.6a150.18,150.18,0,0,1-22.34,1.74,113.13,113.13,0,0,1-26.8-3.28c-1.26-.29-3.5-.56-2.8-2.39S395.25,661.07,396.87,662.23Z" style="fill:#597c97"/><path d="M528.19,642a13.06,13.06,0,0,0,13.29-.61c3.76,1.67,7.8,1.74,11.79,2.19,1.89.21,5.07-1.14,5.3,1.42s-3,1.44-4.65,1.77c-7.4,1.42-14.9.42-22.36.63a88.18,88.18,0,0,1-16.95-.76c-1.2-.2-2.53-.36-2.39-1.89s1.49-1.16,2.47-1.18c3,0,5.93,0,8.9,0C525.31,643.59,527,643.43,528.19,642Z" style="fill:#648ea3"/><path d="M165.39,661.42c.45-7.06.45-7.08,7.31-7,3.33,0,6.67.13,10,.2,1.71,3,1,5.52-1.72,7.53-.65,3.18-2.62,4.31-5.77,3.92-1.63-.21-3.31,0-5,0C166.12,665.85,165.93,665.65,165.39,661.42Z" style="fill:#273448"/><path d="M181,662.13c.57-2.51,1.15-5,1.72-7.53l9.19-.06c1.44,2.74,3.12,5.38,3.93,8.42C190.81,663.89,185.79,664.91,181,662.13Z" style="fill:#7fa5bd"/><path d="M416.39,628.83c2.21-.69,2.16,2.24,3.43,2.3s2.44-1.6,4.28-1a13.15,13.15,0,0,1,3.79,1.77c.26,1.37-.47,2.14-1.6,2.71a5.56,5.56,0,0,0-2.15,1.47c-3.36,4.24-3.4,4.22-8.36,2.46a5.58,5.58,0,0,1-2.71-1.33Z" style="fill:#2d4158"/><path d="M198,666.19c4.71.41,9.43.94,14.13-.08-.81,5.37-1.63,6.47-5.11,6.81C202.75,673.34,200.05,671.33,198,666.19Z" style="fill:#dbdadb"/><path d="M418.74,644.33c-.07,1.22-.35,2.56-1.89,2.17-2.76-.72-5.89-.11-8.3-2.16l3.3-5.29a25.58,25.58,0,0,0,7.14,1.48c1.67.08,2.55.73,1.15,2.39A3.52,3.52,0,0,1,418.74,644.33Z" style="fill:#293e53"/><path d="M121.93,667.69c4.25-1.78,8.72-1.71,13.2-1.61-.58,3.14-2.09,5.45-5.49,6C126.69,672.49,123.72,670.77,121.93,667.69Z" style="fill:#d2d4d4"/><path d="M136.61,663.6a5,5,0,0,1,.85-2.52c1.73-2.22,4-4.26,6.71-3.9s2.69,3.59,3.31,5.86C143.88,663.62,140.31,664.92,136.61,663.6Z" style="fill:#83b1c5"/><path d="M304.3,655.9c1.45.3,2.31,1.41,3.26,2.39a131.76,131.76,0,0,1-20.35.87,21.59,21.59,0,0,1-8.18-1.82.51.51,0,0,1,.07-.34,6.21,6.21,0,0,1,.7-.31C288,658.48,296.16,657,304.3,655.9Z" style="fill:#527889"/><path d="M281.17,621.76c.45,3,3.45,2.17,5.09,3.37.95.7,3.21.56,2.64,2.15s-2.77,1.92-4.34,1.32a48.58,48.58,0,0,0-6.18-2,10.22,10.22,0,0,0-1.92-.08c.14-1.65,1.86-2.4,2.22-3.92C279.32,621.71,280.29,621.88,281.17,621.76Z" style="fill:#2b4055"/><path d="M627.44,374.19c.87,2.08,2.44,3.65,3.86,5.33a1.83,1.83,0,0,1-1.7.66c-8.76,0-17.52,0-26.28-.06a9.9,9.9,0,0,1-2.21-.54c1.14-2,3.35-2.09,5.09-2.06a8,8,0,0,0,7.34-3.84c2.74-1.78,5.75-1.13,8.7-1C624.2,372.42,626.08,372.45,627.44,374.19Z" style="fill:#406686"/><path d="M613.6,374.91c-.71,2.94-1.53,5.25-5.63,4-2.05-.6-4.56.37-6.86.62a1.89,1.89,0,0,1-.67-.07v-7c.86-.74.5-1.93,1-2.75.7-1.23,1.88-3.09,3.28-1.86,1.85,1.61,1.11-1.3,2-.79.29.43.11-.19.24.29A11,11,0,0,0,613.6,374.91Z" style="fill:#406686"/><path d="M685.69,35.2c8.49,0,17-.28,25.44.19,7.3.4,14.61-.5,21.87.58,0,2.58,0,5.16.16,7.73s1.29,4,4.15,3.89,5.67-.1,8.5-.05c2.59,0,3.83-1.15,3.69-3.75,2.18-1.21.51-3,.59-4.51.2-3.71.46-3.93,4-3.78a289.72,289.72,0,0,0,31.74-.09,66.26,66.26,0,0,1,10.06.08c2.43.22,3.24,1.31,3.21,3.74-.12,8.53-.06,17.06-.05,25.58,0,22.23-.34,44.47.26,66.68.51,18.6.32,37.19.41,55.78-.4,1.51-1.59,1.87-2.92,2-6.65-1.12-13.36-.74-20.06-.75q-42.57,0-85.13,0a21.72,21.72,0,0,1-5.4-.27,2.45,2.45,0,0,1-1.15-1c-.08-2.06-.22-4.12-.22-6.19q0-70.75,0-141.5C684.83,38.1,684.34,36.45,685.69,35.2Z" style="fill:#fcf3f0"/><path d="M797.61,188.12l2.11-.85c.24.44.81,1.08.69,1.28a80.26,80.26,0,0,1-4.8,6.92c-1.27,1.63-3.73,2.19-6.06,2-6.29-.51-12.55.77-18.88.1a48.28,48.28,0,0,0-13.12.55c-4.73.81-9.51-.62-14.27-.6-9,0-18,1.09-27.09.75-2.39-.08-4.52-.37-6.5-2-2.4-1.9-8.49-1.86-10.92.16-4.15,3.44-8.43.58-12.63.53-.91,0-1.22-1.25-1.11-2.21a2.66,2.66,0,0,1,1.57-2.49,26.53,26.53,0,0,1,3.58-.69c-2.35-1.73-4.18-.34-5.85-.16s-3.12.32-4.25-1-1.88-2.72.16-3.84,2.36-3.13,2.36-5.31c-.05-10.48.08-21-.09-31.43,0-3.46,0-6.89,0-10.34.14-23.75.08-47.51.08-71.26,0-1.91.09-3.86-1.76-5.31-1.44,1.72-1.35,3.65-1.35,5.55,0,8.41-.19,16.83.09,25.23.12,3.39-2.08,6.42-.92,9.89,1.08,3.23.83,6.64.84,10a65.92,65.92,0,0,0,.67,12c.86,4.62-.68,9.23-.68,13.88,0,10.56.19,21.14-.1,31.7-.1,3.85.2,7.68.09,11.52,0,1.35-.2,2.78-1.91,2.86-1.48.07-1.64-1.26-2-2.39-1.15-3.2-.34-6.63-.91-10-2.41.25-1.58,2.61-2.76,3.47-1.32-.63-.84-1.81-.88-2.74a55.93,55.93,0,0,1,0-6.21c.95-12.29-2-24.38-1.82-36.67.09-5.5-.23-11,.07-16.54.44-7.93.35-16-2.32-23.68-.48-1.36,1.42-16.58,2.3-17.7,1.56-2,1.79-4.19,1.77-6.58-.06-7.5,0-15,0-22.47,1.05-.39,1.16.43,1.42.9,1,1.84,1.85,1.44,2.65-.17a4.13,4.13,0,0,0,.23-3.37,5.12,5.12,0,0,1,0-3.79c.3-.73.7-1.48,1.6-1.49a1.6,1.6,0,0,1,1.74,1.71c-.55,4,1.8,7.79,1,11.82a9.07,9.07,0,0,0,0,2.33c.08,1.08.37,2.2,1.69,2.19,1.51,0,1.33-1.34,1.34-2.32,0-4.26,0-8.53.05-12.8,0-.6-.09-1.31.93-1.78.84.89.58,2.07.58,3.13q0,70.83,0,141.67a6.93,6.93,0,0,1-.75,3.71c-1.5,2.64.73,1.41,1.69,1.45a2.74,2.74,0,0,1,.74.17c1.37.55,2.81.28,4.21.28q51.71,0,103.41,0C794.82,187.77,796.26,187.44,797.61,188.12Z" style="fill:#a3bfcb"/><path d="M514.13,374c-9.52,1.33-19.09.43-28.62.44-39.64,0-79.28.46-118.92-.14-1.54,0-3.08-.2-4.62-.31-3.1-1.69-2.12-5-3-7.59a12,12,0,0,1-.16-4.24c.13-3.05,0-5.95-2.7-8.07a2.89,2.89,0,0,1-.87-2.11c2.93-3.26,1.33-7.71,2.95-11.32-.56-7.86-1.21-15.71-2.28-23.51-1-.89-.91-2.08-.91-3.23,0-9.13-1.45-18.17-1.89-27.27a2.63,2.63,0,0,1,.34-1.84l.52-2.42c1.8-3.2,4.72-4,8.15-3.84q76.44.06,152.88,0c1.37.32,3-.07,3.92,1.51,1.81,1.31,1.9,3.15,1.73,5.16q-1.26,14.36-2.41,28.72c-.12,1.39,0,2.81-.07,4.21a156.61,156.61,0,0,1-1.56,32.88c.69,5.71-1.06,11.29-.84,17C515.86,370.21,516.19,372.45,514.13,374Z" style="fill:#fcf3f1"/><path d="M515.71,350.91c0-11,1.23-21.84,2.47-32.72.22.59.67,1.21.61,1.77-.62,5.5,2.52,9.71,4.78,14.23,2.11,4.21,4.13,8.46,6.19,12.68-3,2.18-6.89.79-10.13,2.27-.88.41-2,.25-2.32,1.51A1.11,1.11,0,0,1,515.71,350.91Z" style="fill:#2b4766"/><path d="M361.23,279.15c-2.72.4-5.44.83-7.25,3.25l-1.26-.72a9.87,9.87,0,0,1,8.46-4.08c7.62.35,15.24.17,22.85.17q63.77.08,127.52,0a51.46,51.46,0,0,1,6.9.54c.64.09,2.61.56.48,1.75l-3.2-.93a9.45,9.45,0,0,0-3.09-.21H364.32A10.36,10.36,0,0,0,361.23,279.15Z" style="fill:#425976"/><path d="M408.55,233.49c1.93,1.64,2.11,4.24,3,6.33,5.46,13.16,26.85,20.64,38.73,16.81,4.4-1.41,8.93-2.47,13.59-4.35a2.15,2.15,0,0,1-1.56,2c-15.19,6.77-29.85,6.46-43.51-3.71-5.66-4.22-9.5-9.8-10.23-17.11Z" style="fill:#2b4764"/><path d="M196.77,580.73a42.65,42.65,0,0,1,.09-19,76.54,76.54,0,0,1,9.32,8.63c1.41,1.62.68,2.33-.66,3.29C202.73,575.7,199.45,577.07,196.77,580.73Z" style="fill:#f3dad3"/><path d="M244.7,570.48c0,2.3,0,4,0,5.64,0,2-1.08,2.33-2.44,1.28a37.5,37.5,0,0,0-7-4.65c-1.36-.63-1.44-1.72-.38-2.79q3.4-3.4,6.84-6.78c1.18-1.15,1.92-.86,2.47.68C245,566.24,244.53,568.7,244.7,570.48Z" style="fill:#efd4cd"/><path d="M216,591.31c.29-2,.68-3.9,3.27-4,2.22-.08,3.72,1.52,3.72,3.95,0,2.92-2.25,3.08-4.27,3.34C216.22,594.94,216.35,592.9,216,591.31Z" style="fill:#314e60"/><path d="M236.9,590.54c.09-1.95.6-3.67,3-3.63,2.7,0,3.29,2,3.45,4.22.13,2-.76,3.24-2.79,3.4S236.87,592.9,236.9,590.54Z" style="fill:#273c58"/><path d="M231.88,604.89a10.87,10.87,0,0,1-1.86-.16c-1.6-.4-1.87-1.75-1.65-3,.34-2,1.88-.87,2.72-.62,1.39.41,2.73,2.22,3.53-.68.2-.72,1.52-.74,2-.13a2.6,2.6,0,0,1-.29,3.49C235.1,605,233.45,604.75,231.88,604.89Z" style="fill:#2d2f3e"/><path d="M211.59,599.49c-.49.73,1.93,1.07.36,1.87-.7.36-1.88.6-2.07-.74-.12-.79-.31-2,1-2,1.7,0,3.44-.34,5.35.24C214.65,600,213,598.94,211.59,599.49Z" style="fill:#989ea4"/><path d="M216.58,604.11c-2,.95-4.24.54-6.49,0Z" style="fill:#5f555e"/><path d="M254,600.1l-1.56.85H246.8C249.15,599.81,251.59,600.2,254,600.1Z" style="fill:#767575"/><path d="M465.24,140.33c1.54,3.09-.15,5.47-1.88,7.7a45.87,45.87,0,0,1-12.63,11.67,42,42,0,0,1-19.4,5.51c-4,.21-7.92-.6-11.88-.79-3.25,1.87-6.27.54-8.94-1.11s-2-3.65,1.24-5.7c12.45,5,24.56,4.27,36.43-2C455.19,152,460.31,146.28,465.24,140.33Z" style="fill:#f5c1bd"/><path d="M411.75,157.61c-2.62,3.88-2.41,4.39,2.09,5.37,1.88.41,3.74,1,5.61,1.44.41,1.75,1.84,1.47,3.1,1.56.6,0,1.41-.15,1.59.69a1.81,1.81,0,0,1-1,1.91,3.42,3.42,0,0,1-1.45.45c-1.25.12-2.52.44-2.35,1.93s1.47,1.19,2.5,1.08c2.83-.3,2.81,2.19,3.38,3.75.8,2.17-1.57,1.49-2.45,2-2.22,1.32-4.76.74-7.18.58-2.86-.18-5.42,0-6.71,3.22-.51,1.26-1.47,1.82-2.67.57-.5-2.51-.77-5-1.29-7.57a19.11,19.11,0,0,1,1.83-12.38,7.32,7.32,0,0,0,1.21-3.2C409.11,158.28,410,156.72,411.75,157.61Z" style="fill:#fddfdc"/><path d="M480.85,182.23c-1.67-3.39-.47-7-.76-10.47C480.92,175.21,480.37,178.76,480.85,182.23Z" style="fill:#fddfdc"/><path d="M696,537.22c-1-1.06-.77-2.41-.78-3.68-.18-14.47-2.06-28.78-3.69-43.13-.87-7.67-1.91-15.37-1.8-23.13,2.78,4.39,3.9,9.49,5.69,14.26,4.29,11.42,8,23.07,11.73,34.69,1.89,5.88,3.32,11.9,5.08,17.83.74,2.46,0,3.18-2.5,3.12-4.12-.11-8.25.06-12.37.11Z" style="fill:#3b6f8e"/><path d="M393.81,169.87Q398.88,176,404,182.13c-.3,1.43.81,3.57-.86,4.16s-2.42-1.54-3.49-2.55c-3.28-3.1-4.74-7.25-6.32-11.31A3.07,3.07,0,0,1,393.81,169.87Z" style="fill:#f3bcbf"/><path d="M443.88,200.13a3.35,3.35,0,0,1-3.95-2.94c-.63-3.19-.3-6.44-.19-9.67,0-.81.39-1.6,1.28-1.7,1.18-.12,1.58.78,1.63,1.73.11,1.94.09,3.88.13,5.82,0,1.4.35,2.71,2.08,2.64,1.32,0,2.72-.6,2.56,1.57a2.53,2.53,0,0,1-2.81,2.55Z" style="fill:#f6b1ae"/><path d="M426.23,186.34c0,2.7-1.69,5.07-3.66,5.11s-3.79-2-3.5-4.59c.24-2,.21-4.62,3.2-4.88C424.31,181.81,426.22,184,426.23,186.34Z" style="fill:#2e374a"/><path d="M467.3,186.46c-.35,2.28-.56,4.62-3.35,5-2,.29-4-2.25-4-4.78s1.87-4.59,3.82-4.43C466.39,182.49,467,184.41,467.3,186.46Z" style="fill:#293752"/><path d="M465.56,177.6c-1.76-.42-4.16.43-4.25-2.36s2.15-2.51,3.89-2.49,4.06-.06,4.19,2.37C469.53,177.83,467.08,177.24,465.56,177.6Z" style="fill:#383946"/><path d="M442.66,211c-1.6,0-2.64,0-3.47-.72a2,2,0,0,1-.78-1.2c-.07-.77.6-1,1.27-1.1,1.38-.19,2.76-.35,4.14-.55,1-.14,2.2-.62,2.55.78.3,1.21-.75,1.8-1.71,2.2A13.45,13.45,0,0,1,442.66,211Z" style="fill:#f5b8b1"/><path d="M703.66,451.79A45.91,45.91,0,0,1,719,469c.39.79.67,1.69,1.68,1.95-.5,2.39-.58,4.88-1.76,7.08-1,1.83.26,3.53.27,5.29.07,8,.62,15.92,1.44,23.86a2.25,2.25,0,0,1-2.42,2.77,24.35,24.35,0,0,1-5.78-.22c-1.46-.29-3.11-.7-4.1,1.07-2.67-5.6-3.69-11.77-6.11-17.45-4-9.34-6.24-19.33-10.93-28.4-2.3-4.46-1.77-5.73,2.91-8,2.54-1.24,5.11-2.42,7.64-3.7A11.94,11.94,0,0,0,703.66,451.79Z" style="fill:#3c7392"/><path d="M721.67,464.19a45.2,45.2,0,0,0-.95-9.21c-1.29-7.13,1-13.51,4.29-19.58a195.12,195.12,0,0,1,15.16-22.86c2.29-3.09,4.18-6.48,6.26-9.73a3.42,3.42,0,0,1,.78,2.52,24.75,24.75,0,0,0,2.69,10.76c2.29,4.5,1.54,8.85-2.23,12.24-3.53,3.18-7.17,6.24-10.71,10-2-3.62-1.28-7.83-4.3-11.56-.16,4.33-.79,8,.54,11.59a3.6,3.6,0,0,1-.44,4C727.27,448.71,724.25,456.34,721.67,464.19Z" style="fill:#4c84a2"/><path d="M726.16,535.62H724c5.32-14.11,12.14-27.54,18.34-41.25,6.59-14.58,14.74-28.32,21.39-42.82,1.66-3.62,4.45-6.66,5.27-10.66,4.09-5.84,6.23-12.7,9.92-18.76.67-1.1,1.39-2.15,2.11-3.2,6.13-8.89,10.56-18.82,16.73-27.67.8-1.15-.13-4.27,3-3.18-.23,3.33-1.9,6.11-3.76,8.65-3.85,5.24-6,11.44-9.72,16.7-5.61,7.95-9.07,17.07-14,25.35-3.91,6.53-6.66,13.66-10.79,20.07a6.81,6.81,0,0,0-.51,2.22c-5.7,10.27-11,20.69-15.69,31.48-1.66,3.85-3.58,7.65-5.5,11.41C735.46,514.32,731,525.05,726.16,535.62Z" style="fill:#4e8aab"/><path d="M719.27,537.06c-2,.2-4,.3-4.59-2.28-1.64-7.27-4.28-14.28-5.58-21.64,3.16-1.5,6.29.09,9.43.17,1.71,0,1.51,1.83,1.46,3.07-.21,5.36.59,10.75-.64,16.08A21.38,21.38,0,0,0,719.27,537.06Z" style="fill:#3c7392"/><path d="M284.15,374.08h-2.36c-1.55,0-2.83-.22-2.87-2.23s1-2.45,2.68-2.42,3.1,0,4.65,0c1.39,0,2.65.21,2.65,2,0,1.63-1.12,2.24-2.47,2.49A13.78,13.78,0,0,1,284.15,374.08Z" style="fill:#d8d9db"/><path d="M742.55,354.69l-62.34-.06.81-8.43c.69-.29,1.38-1.6,1.86-1,2.38,2.74,5.5,1.67,8.27,1.69,15.51.12,31,.06,46.53.06,5.53,0,5.55,0,4.69,5.51A4,4,0,0,0,742.55,354.69Z" style="fill:#839cb2"/><path d="M665.76,367l62.1.06c1,0,2.08,0,3.1.08s1.47.9,1.46,1.91-.42,1.78-1.53,1.87c-.91.07-1.81.07-2.72.07l-57.83,0c-1.68,0-3.42.24-4.56-1.44C665.77,368.71,665.77,367.87,665.76,367Z" style="fill:#92a8b7"/><path d="M665.63,349.85c-.06-4.74.31-5.18,4.16-5.18,3.45,0,4.46,1.09,4.46,4.76,0,4.14-.91,4.75-5.4,5.11S666.07,351.68,665.63,349.85Z" style="fill:#839cb2"/><path d="M627.44,374.19,622.1,374c-1.73-3-4.25-4-7.7-3.87-2.16.1-4.78.08-5.47-3,6-.72,11.91,0,17.87-.08C627,369.47,627.23,371.83,627.44,374.19Z" style="fill:#aec1cf"/><path d="M358.2,340.67c1.12,2.4.62,5,1.1,7.56.44,2.27-2.54,2.12-3.49,3.56a7,7,0,0,1-1.67,3c-4.75,4.55-5.64,9.9-3.26,15.92.42,1.07.94,2.16.28,3.34,3.07,1.78,6.27,3.05,9.92,2.56.94-.13,1.8-.18,2.37.76-5.89,1.14-11.9,2.48-17.58-.21-3.73-1.76-5.4-5.45-5.63-9.57-.61-11,3.45-16.1,15.38-19-3.73-1.68-7.55-1.46-10.73-3.22a14.66,14.66,0,0,1,3,0c2.09.46,3.43-.06,4.08-2.23.46-1.53,1.87-2.3,3-3.33C356.68,338.33,357.35,339.58,358.2,340.67Z" style="fill:#385576"/><path d="M353.46,284.82c1.39,10.74,2.06,21.53,2.46,32.34-.12,1.52-.23,3-.35,4.56h-.37c-.33-3.13-1-6.28-.91-9.39.29-7.9-2.08-15.58-1.61-23.47C352.76,287.49,352.32,286,353.46,284.82Z" style="fill:#314f66"/><path d="M92,111c3.44,0,6.88,0,10.32,0,1.24,0,2.58-.33,3.56.83a1.68,1.68,0,0,1,.47,1.33c0,7.29,0,14.59,0,21.88,0,1.23.42,2.56-.45,3.71-4.18,1.14-8.43.51-12.65.57a1.72,1.72,0,0,1-1.91-1.92q0-12.72.14-25.44C91.46,111.62,91.8,111.29,92,111Z" style="fill:#e7e1e1"/><path d="M154,111.1q.08,13.5.16,27c-1.7,1.77-3.9.94-5.87,1-3,.09-5.93-.17-8.9-.28a167.57,167.57,0,0,1,.08-27.71Z" style="fill:#e9e3e1"/><path d="M123.78,110.87l13.91.23a.88.88,0,0,1,.21,1.35c-.06,7.74-.25,15.48-.11,23.22.05,3-.83,3.86-3.76,3.53-3.57-.4-7.22.17-10.79-.55-1.12-3.27-1-6.74-1.23-10.09a132.86,132.86,0,0,1,0-15.84C122.22,111.75,122.51,110.84,123.78,110.87Z" style="fill:#e5e1df"/><path d="M107.51,111l13.88.14a2.4,2.4,0,0,1,.85,2c.19,6.91-.27,13.83.39,20.74.16,1.76.2,3.62-1.12,5.11a103.83,103.83,0,0,1-14,0Z" style="fill:#e5e1e2"/><path d="M121.51,138.92l.1-26.46a1,1,0,0,1,1.48.05c.27,8.71.46,17.42.15,26.14-.22.5-.22,1.25-1,1.26C121.75,139.92,121.65,139.35,121.51,138.92Z" style="fill:#3c7179"/><path d="M105.88,138.75q0-13.14.07-26.26c.12-.32.33-.38.61-.19,0,7.3.09,14.6.16,21.9,0,1.52-.29,3.08.44,4.54C106.73,140,106.3,139.19,105.88,138.75Z" style="fill:#346e6d"/><path d="M240.34,103.29h3.08a5.87,5.87,0,0,1,.64,4.48c-.84,3.56-.5,7.15-.67,10.73-.07,1.37.82,3.65-1.42,3.75s-1.59-2.2-1.61-3.56C240.27,113.57,240.34,108.43,240.34,103.29Z" style="fill:#456181"/><path d="M221.63,96.2c-6.2,0-12.41-.1-18.61,0-2.72.06-4-.58-4-3.64q.21-16.27,0-32.57c0-3.07,1.24-4.1,4.12-4.19,12.79-.41,25.55,1,38.34.65,2.4-.07,2.71,1.31,2.7,3.23,0,11.12-.06,22.24,0,33.35,0,2.36-.89,3.2-3.2,3.16-6.47-.09-12.93,0-19.4,0Z" style="fill:#fcf2ef"/><path d="M521.12,351.74c6.79-3.29,12.31-2.66,15.76,2.16,4.26,5.93,5.49,12.28,2.28,19.25-1.72,3.75-4.36,5.58-8.41,5.55l-19-.08c-.74-2.7,0-4,3.09-3.78,4,.24,8,.1,11.93.07,1.25,0,2.62.34,3.57-.88a3.29,3.29,0,0,1-.16-2.79,14.18,14.18,0,0,0,0-10.08c-1.22-3.18-2.92-5.94-6.43-7.09C522.58,353.69,521.2,353.41,521.12,351.74Z" style="fill:#3d5b7c"/><path d="M351.16,374.05c-5.7-8.34-3.89-17,4.65-22.26a13.83,13.83,0,0,0,2.24,2,4.57,4.57,0,0,1,2.38,4.82c-.43,5.21.72,10.27,1.54,15.35Z" style="fill:#f8e1e2"/><path d="M531.22,371.71c.16.93-.48,1.57-.84,2.32a116,116,0,0,1-16.25,0q.07-3,.13-6.09a2.57,2.57,0,0,1,3.07-1.75c4.22,1.07,8.51,2,12.52,3.75A2.8,2.8,0,0,1,531.22,371.71Z" style="fill:#eeb4b2"/><path d="M744.72,23.17c0,2.94-2.1,5.64-3.81,5.33-2.35-.44-3.23-2.28-3.25-4.57,0-2.7,1.51-4.51,3.78-4.33A3.27,3.27,0,0,1,744.72,23.17Z" style="fill:#85a5bb"/><path d="M608.93,367.18c2.6,1.32,5.41,1.4,8.24,1.49,5,.16,5,.18,4.93,5.36-2.85.15-5.75-.26-8.5.88-7.39-.27-7.39-.27-6.92-7.78Z" style="fill:#aec1cf"/><path d="M531.22,371.71c-4.65-1.52-9.55-2.17-14-4.23a2.91,2.91,0,0,0-2.92.44c-.29-5.73.54-11.37,1.45-17l1.6-.26c1.28.34,2.42,1.14,3.81,1.09C531,354.18,535.49,363.09,531.22,371.71Z" style="fill:#fbdcd7"/><path d="M552.21,400.66c.67.23.69.85.83,1.39-1.15,12.13-.57,24.26-.16,36.4.38,11.2-2.36,21.25-10.81,29.17-1.3,1.22-1.37,2.68-1.31,4.27.17,4.9.39,9.8.43,14.71s-.53,5.5-5.6,5.51c-4.52,0-9.05-.09-13.58-.09-1.35,0-3-.41-3.26,1.72-.74-1.13-1.19-2.17-3.14-1.92a102.74,102.74,0,0,1-10.69.32c-1.62,2-3.93,1.68-6.08,1.69-15.75.05-31.49,0-47.23,0-6,0-8.09,1.85-11.35,3.29-2.69-.71-2.25-2.54-3.15-4.11-6.09-.49-6.95-1.66-7.71-7.82-.48-4-.65-8-1.29-11.91-.51-3.14-.27-6.23,2.48-8.5,4-2.73,8.55-1.67,12.79-1.32,10.84.91,21.66.52,32.5.25a14.72,14.72,0,0,0,5.31.82c15.6-1.1,31.23-.62,46.83-.39,11.87.19,16.82-6,19.29-18,2.3-11.16.6-22.65.92-34,0-1.94.12-3.88,0-5.81C548.09,403.39,549.27,401.45,552.21,400.66Z" style="fill:#506583"/><path d="M671,537.18,669.7,537c-.06-.38-.14-.76-.19-1.15-.91-7.15-4.93-11.41-11.77-13.66a30.19,30.19,0,0,1-18.15-16c-3.39-7-9.1-10.67-16.32-12.53-1.13-.29-2.24-.64-3.35-1-1.25-2,.55-2.75,1.7-3.51a68.2,68.2,0,0,1,10-5.74c.95-.43,2.57-.63,2.09-2.23a2.76,2.76,0,0,0-3-2,23.45,23.45,0,0,0-6.8,1.23c-4,1.63-8.27,1.71-12.38,2.71-1.3.32-2.58.24-3.3-1.21a5.66,5.66,0,0,1-.89-3.07c.2-2.9,2.6-2.76,4.5-3.1,3.75-.68,7.58-.95,11.76-2-2.89-2.12-5.62-3.59-7.93-5.62-1.43-1.27-3.59-2.66-2.1-4.71,1.36-1.87,3.35-.32,4.82.61,4,2.51,8.21,4.63,12.51,7.76.05-3.83-.47-6.87-.52-9.92,0-3.4,1-4.26,4.22-4a6.44,6.44,0,0,1,3.1.79,4.72,4.72,0,0,1,1.67,3.77c-.36,4.55,1,9,.94,13.5a3.64,3.64,0,0,0,1.25,3.1,114.89,114.89,0,0,1,20.27,19.94c2.75,8.16,4,16.69,6.12,25C669.06,528.41,670,532.8,671,537.18Z" style="fill:#3a7292"/><path d="M634.59,458c-3-.07-3.11,2.21-2.75,4,.58,2.93,0,6,1,8.83.32.93.46,2.23-.45,2.92-1.14.87-2.33,0-3.15-.7-4.08-3.66-9.32-5.5-13.64-8.78-.4-.31-.83-.6-2-.06,3.75,4.43,9,6.63,13.83,10.23-5.23,2-10.21,2.23-15.08,2.93-1.82.26-3.59.45-5.08,1.61-2.34-10.38,0-16.74,6.68-21.11a13.1,13.1,0,0,1,7.76-1.9C626.07,456.1,630.53,456,634.59,458Z" style="fill:#5089a5"/><path d="M653.4,462.65q3.42,14.69,6.83,29.38c.44,1.88.91,3.75,1.37,5.63-.64,1.18-1.36,1.1-2,0-4.37-7.51-11-12.78-17.67-18.05-2.07-1.64-1.86-3.5.83-4.16,3.72-.93,3.5-3,2.75-5.81a18.12,18.12,0,0,1-1-4.13c0-1.32-.42-2.95,1.75-3l5.39,1.82C653.34,464.88,653.22,463.61,653.4,462.65Z" style="fill:#3b7393"/><path d="M608.22,482c4.37-.78,8.85-1.18,13.08-2.45,3-.9,6-1.39,9-2.06,1.94-.43,5.89,2.4,6.33,4.25s-1.07,1.85-2.06,2.21c-4.88,1.78-9.06,4.82-13.52,7.35a1.91,1.91,0,0,0-1.13,1.42C614.2,491.17,609.28,488.71,608.22,482Z" style="fill:#4f86a5"/><path d="M643,416c.25,3.15,1.7,6.08,1.74,9.27.47,2.09,1,4.26.23,6.3a4.68,4.68,0,0,1-5.06,3.21c-3.16-6.93-6.34-13.85-9.47-20.79a16.22,16.22,0,0,1-1.4-7.18c.49-1.41,1.86-1.9,2.71-1.12C635.47,409.15,641.13,410.53,643,416Z" style="fill:#4d85a3"/><path d="M646.3,462.51c-1.26,1.16-.4,2.37-.08,3.57.41,1.49.87,3,1.22,4.46,1.08,4.76.56,5.48-4.32,6.12a3.75,3.75,0,0,0-1.1.31c-.21.1-.33.36-.64.71,3.56,3.1,7.52,5.72,10.83,9.12a48.66,48.66,0,0,1,8.09,10.49c.35.65.79.5,1.3.37.07.47.15.94.22,1.4-.33.42.44,1.89-1,1.2a5.06,5.06,0,0,1-1.78-2c-4.17-7.08-10.82-11.72-16.83-16.94-2.2-1.91-3.5-3.78-3.7-6.78-.35-5.26-1-10.5-.87-15.78A23.87,23.87,0,0,1,646.3,462.51Z" style="fill:#4e86a5"/><path d="M639.88,434.81c.23-.31.38-.75.68-.91,3.56-1.83,4.66-4.82,4.15-8.6q3.07,13.29,6.13,26.57c.34,1.49.53,3,.79,4.54C644.47,451,641.69,443.16,639.88,434.81Z" style="fill:#437593"/><path d="M643,416c-3.4-3.2-7.52-5.49-10.81-8.83a2.4,2.4,0,0,0-3.15-.36c-1.12-1.46-.42-3.2-.74-4.79.2-.89.6-1.54,1.66-1.4,3.29,2.62,6.09,6.11,10.84,6.14A33.49,33.49,0,0,1,643,416Z" style="fill:#3a6e91"/><path d="M431.18,465.78c-.94,1.56-1.8,3.17-1.55,5.07.8,6,1.08,12,2.11,18,.33,1.95,17.68,62.73,16.58,75.45,0,7.49,0,15,0,22.46-.13,1.91,1,2.65,2.7,2.88a1.3,1.3,0,0,1,.4,1.89c-1.6.75-4.44-.06-4,3.21-.81,1.7-2.42,2.32-4.06,2.65-6.54,1.31-13,3.1-19.69,3.55-2.83.18-5.58,1.07-8.43.88s-3,2.35-4.35,3.75l-4.16,1.09c-.15-5.15,5.63-8.11,4.34-13.31-.57-.88-1.65.07-2.56-.26-5.14-23.56-11-46.94-16.23-70.49-1.92-8.69-4.42-17.25-5.61-26.09a11.43,11.43,0,0,0-1.17-6.79c-3.5-6.28-2.12-12.48,0-18.69a163.35,163.35,0,0,1,6.41-15.78c2.54-5.55,6-10.25,11.12-13.59a5.17,5.17,0,0,0,1.7-1.92c-7.57,1.93-11.67,7.31-14.29,13.78-8.36,20.56-14.65,41.86-22,62.8s-14.93,41.8-22.29,62.74c-1.28,3.64-3.63,5.51-7.5,5.46a105.79,105.79,0,0,1-24-8.34c-1.61-.75-3.62-1.69-3.32-4.19q8.94-28.2,17.89-56.41c4.79-15,9.66-29.95,14.47-44.93.51-1.59.86-3.23,1.28-4.85.26-.79-.23-1.53-.17-2.32,4.29-13.91,8.29-27.92,13.22-41.63,3-8.29,8.46-14.35,16-18.74,3.49-2,7.44-1.73,11.17-2.55q32.7-.74,65.4,0c12.15.35,23.08,4.57,33.4,10.62a107.37,107.37,0,0,1,16.59,11.92A22,22,0,0,1,506.7,431c-.19,6-.12,12.16-5.08,16.75-.23.11-.5.15-.72.28-10.53,6.19-21.82,3.91-32.9,2.67-13.46-1.51-26.89-3.41-40.33-5.1q-7.87-1-15.76-1.88c-3.38-.38-10,4.32-10.48,7.6-.32,2.17,1,2.24,2.66,2.09A36.22,36.22,0,0,1,419,454.91c4.47,1.51,7.85,4.39,11,7.65A4.4,4.4,0,0,1,431.18,465.78Z" style="fill:#27344d"/><path d="M311.38,572c8.17,6,17.9,8.12,27.31,11.06a4.34,4.34,0,0,0,3.65.21c2.4-.83,3.86,0,4.89,2.12a6.86,6.86,0,0,1-.49,6.15c-1.24,2.17-1.8,4.73-2.66,7.12-2.69,2.48-5.31.1-8-.09-7.21-1.94-14.24-4.4-21.25-7-1.59-.59-3.17-1.19-3.47-3.18-7-3.88-7.09-3.89-4.09-11.77C308.05,574.63,308,571.75,311.38,572Z" style="fill:#354e6e"/><path d="M303.7,604.18c.84-3.4,1.7-6.8,3.93-9.64a2.23,2.23,0,0,1,1.88-.16c8.52,3.71,17.37,6.74,25.09,12.1a3.37,3.37,0,0,1,.8.84c.92,1.64.27,3.19-.25,4.75-1.79,3.8-3.71,4.79-7.62,3.94a39.69,39.69,0,0,1-7.56-3c-4.48-2-8.88-4.15-13.37-6.13C305.36,606.37,303.82,606,303.7,604.18Z" style="fill:#fbddd5"/><path d="M334.68,607.1c-.44.22-.75,1.08-1.23.71-5.68-4.29-12.2-6.87-18.76-9.4a24.32,24.32,0,0,1-7.06-3.87c.05-2.79,1-5,3.76-6.17,8.2,3.28,16.57,6.09,25,8.66C339.59,600.43,338.76,605.25,334.68,607.1Z" style="fill:#f5b4b3"/><path d="M303.7,604.18c6.39,2,12.2,5.29,18.32,7.9,1.77.76,3.55,1.53,5.37,2.16,4.1,1.42,4.44,1.26,6.69-2.54,2.11-.94,3.2.47,3.89,2,1,2.29,1.47,4.67-.88,6.59a15.64,15.64,0,0,1-7.83.44c0-1.78,1.87-.64,2.17-1.73-6.29-.52-11.7-3.55-17.25-6.14a25.2,25.2,0,0,0-7.5-2.63c-2.61-.32-5.19-.3-7.64-1.84-1.13-.71-3.19,0-4.83.13-.88-.21-1.93-.27-1.42-1.67,2.34-4.15,2.67-4.23,6.94-2C301.17,605.57,302.34,604.2,303.7,604.18Z" style="fill:#395570"/><path d="M345.71,464.21l-.69,1.55a36.22,36.22,0,0,1-9.58-25.83c.19-11.24,0-22.49,0-33.74,0-1.39.3-2.86-.56-4.15.37-1.83,1.72-1.6,3-1.44,2.35,2.3,2.36,5.35,2.41,8.28.18,9.93.15,19.87,0,29.81a30.43,30.43,0,0,0,3.91,15.17A14.38,14.38,0,0,1,345.71,464.21Z" style="fill:#48647f"/><path d="M292.79,606.83l1.42,1.67c-.5.93.11,1.2.82,1.19a15.29,15.29,0,0,1,4.89,1,2.12,2.12,0,0,1,1.78,2.5c-.18,2.26-1.17.83-2,.68s-.81.27-.87.88c-.26,2.6-.63,2.82-3,1.57-1.67-.9-3.17-2.16-5.63-1.83.87,1.79,2.56,1.78,3.78,2.38,1.41.7,3.14,1,2.3,3.23-.94,2.44-2.72,1.4-4.2.78-2-.84-3.77-2.2-6.57-2.07,3,2.25,7.08,2.34,8.09,6.41a35,35,0,0,1-12.52-3.48c1.39-2.86,3.86-4.87,6.12-6.89A18.78,18.78,0,0,0,292.79,606.83Z" style="fill:#2b4055"/><path d="M640.77,406.79c-.5,2.62-2,1-3.23.81-4-.79-6.65-2.91-7.61-7a64.92,64.92,0,0,1,9.86-.1C640.45,402.57,639.34,404.88,640.77,406.79Z" style="fill:#4d85a3"/><path d="M410.87,605.53c-1.18-4.14-.6-5.19,3.15-5.42a153.25,153.25,0,0,0,31.84-5.28,8.73,8.73,0,0,1,1.54-.13,17.2,17.2,0,0,1,2.31,6.38c.6,5.23.59,5.24,5.47,6.65-4.06-.5-7.43,1.5-10.93,3-1.85,3-5.16,2.43-7.92,3A108.4,108.4,0,0,1,423,615.31a4.22,4.22,0,0,1-3.5-1.21c-.9,0-1.8,0-2.7,0-4.78,0-5.1-.28-6.7-5.38C411.14,607.83,410.87,606.65,410.87,605.53Z" style="fill:#364d6a"/><path d="M388.31,496.21c-.27-.71-.58-1.41-.79-2.14-.6-2.11-2.53-2.05-4.07-2.3-1.92-.31-1.67,1.55-2,2.65Q378,505,374.57,515.65c-2.51.78-2.35,3.31-3,5.07-3.61,10.44-7.75,20.67-11.82,30.92S352.11,572,347.6,581.91c-.45,1-.26,2.28-.37,3.43-2.47-2.17-5.89-.83-8.54-2.33,3.68.69,5-1.68,6-4.57,5-14.06,10-28.1,15-42.18,2.59-7.41,5.38-14.74,7.75-22.23,3.18-10.06,6.8-20,10.21-30,2.43-7.14,4.53-14.42,7.35-21.41,2.33-5.8,4.09-11.88,7.91-17.07,2.32-3.15,5.66-4.86,8.52-7.21,1.5-1.23,3.89.81,6.3-.13a19.25,19.25,0,0,1-6.53,6.77c-5.17,3.55-7,9.44-9.58,14.68-3.29,6.6-5.13,13.73-7.15,20.79-.34,1.19.22,1.94.55,2.9C386.5,487.55,388.3,491.66,388.31,496.21Z" style="fill:#304259"/><path d="M337.09,620.27c0-3.21,1.07-6.79-3-8.57l.6-4.6c.86-3.31,3.61-6.29,1.73-10.07l7.67,1.58c-.66,7.12-2.79,14.07-2.33,21.32.14,2.22-2.43,2.46-3.16,4.08C337.63,623,337.53,621.54,337.09,620.27Z" style="fill:#8fafc1"/><path d="M418.74,644.33c-.09-1,.41-1.47,1.4-1.41.85.74,2.1,1.48.59,2.65S419.56,644.5,418.74,644.33Z" style="fill:#829fb9"/><path d="M446.77,621.05c0,.51-.07,1-.07,1.53,0,5.22.05,5.17-5,4.1-6-1.29-12.07-2.76-18.27-2.42-3.41.18-2.23-2.8-3.49-4a1.54,1.54,0,0,0,.21-.69c-.86-2.08,0-3.37,2.06-3.53,7.25-.58,14.51-1,21.76-1.6a1.71,1.71,0,0,1,1.74,1.24C446,617.46,445.68,619.39,446.77,621.05Z" style="fill:#f9dcda"/><path d="M445.74,615.65a155.05,155.05,0,0,1-23.57,1.75c-1.73,0-1.88.91-2,2.14-1.12-1.7-.5-3.63-.71-5.44,8.31-.79,16.55-2,24.78-3.34A7.12,7.12,0,0,1,445.74,615.65Z" style="fill:#f1b6b3"/><path d="M501,447.12c3.44-4.88,3.63-10.67,4.58-16.25-.4-2.43.63-4.58,1.51-6.66,2.28-5.34,1.57-10.86,1.32-16.36-.13-2.91-1.56-4.33-4.68-4.24-1.93.06-4.64.47-4.33-3,17.6-.23,35.2-.69,52.79.07-2.12,1.68-2.35,3.93-2.32,6.47.11,10.08-.15,20.16.1,30.24a37.6,37.6,0,0,1-5.81,21.6,13.41,13.41,0,0,1-11.24,6.67c-18.22.19-36.44.08-54.66.08a3.28,3.28,0,0,1-2.18-.64,2.52,2.52,0,0,1,2.33-2.25c5-.87,8.91-3.87,12.95-6.62,1.74-.73,3.54-1.38,3.93-3.6A12.21,12.21,0,0,1,501,447.12Z" style="fill:#384963"/><path d="M345.71,464.21a20.38,20.38,0,0,0-2.65-8.76c-2.65-4.73-4.48-9.8-4.39-15.41.1-6.84-.09-13.69.05-20.53a183.53,183.53,0,0,0-.82-18.91c15.77-.52,31.55-.26,47.33-.08-3.6,1.24-7.34,2-10.67,4.12a35.42,35.42,0,0,0-15.14,18.3C354.43,436.57,351.25,450.78,345.71,464.21Z" style="fill:#384963"/><path d="M499.42,400.59c1.14,2.46,3.37,1.34,5.11,1.4,4.75.17,4.82.06,5.39,4.64.88,7.05,1,14-2,20.75a11.63,11.63,0,0,1-2.32,3.49c-11.47-13.2-25.83-21.71-42.41-27-4.16-1.33-8.47-1.86-12.56-3.33H473c7.31.92,13.92,3.89,19.77,6.69a50.91,50.91,0,0,0-8.16-3.39c-1.47-.53-3.36-.93-3-3.26C487.58,400.26,493.5,400.38,499.42,400.59Z" style="fill:#405e7e"/><path d="M481.65,400.58c1.71,1.72,3.92,2.35,6.16,3.06,3.75,1.2,7.37,2.73,10,6-8.62-2.11-16.55-6.06-24.81-9.1A48,48,0,0,1,481.65,400.58Z" style="fill:#223953"/><path d="M740.45,163.28H706.32c-.77,0-1.55,0-2.32,0-1.13-.07-2.58.15-2.58-1.56s1.47-1.43,2.57-1.56c7.47-.88,15-.64,22.45-.64,10.6,0,21.2-.2,31.79.09,6.45.18,12.89.63,19.34.57,1,0,2.42-.24,2.55,1.1.15,1.5-1.32,1.8-2.45,1.87-2.32.15-4.65.13-7,.13H740.45Z" style="fill:#bad0da"/><path d="M741.62,92.6c11.89,0,23.77,0,35.66,0,1.15,0,3.13-.72,3.28,1s-1.86,1.8-3.23,2a18.8,18.8,0,0,1-2.71.07l-68.2,0a17.91,17.91,0,0,1-1.94,0c-1.18-.13-3,.45-3-1.5s1.75-1.53,2.92-1.54c8.66,0,17.31,0,26,0h11.23Z" style="fill:#b6cdd4"/><path d="M740.4,143.87H706.29c-1,0-2.07,0-3.1-.07-.79,0-1.64-.17-1.71-1.17s.75-1.58,1.72-1.7a24.56,24.56,0,0,1,2.71-.11q35.08,0,70.16,0c1.47,0,4.06-1,4.06,1.5s-2.6,1.48-4.07,1.49c-11.88.08-23.77,0-35.66,0Z" style="fill:#c3ccd5"/><path d="M741.24,83.3c11.89,0,23.78,0,35.66,0,1.35,0,3.58-.46,3.67,1.15.11,1.9-2.23,1.77-3.62,1.79-8.14.12-16.28.11-24.42.11h-43.8a24.48,24.48,0,0,1-2.71,0c-1.68-.19-4.44.46-4.34-1.86.09-2,2.78-1.1,4.29-1.11,11.76-.08,23.52,0,35.27,0Z" style="fill:#baced5"/><path d="M740.81,150.76h33c1.55,0,3.1,0,4.65.06.89,0,2.11,0,2.13,1.15s-1.22,1.12-2.09,1.18c-1,.07-2.07.05-3.1.05q-34.71,0-69.42,0c-1.51,0-4.23.89-4.24-1.17s2.72-1.18,4.2-1.19c11.63-.09,23.27,0,34.9,0Z" style="fill:#a3c6d0"/><path d="M753.26,119c7.62,0,15.24,0,22.85,0a26.87,26.87,0,0,1,3.47.25,1.28,1.28,0,0,1,1.21,1.28,1.25,1.25,0,0,1-1.17,1.3,19.88,19.88,0,0,1-3.08.24l-47.25,0c-.39,0-.78,0-1.16,0-1.12-.1-2.61.16-2.63-1.51s1.48-1.52,2.59-1.52c8.39,0,16.78,0,25.17,0Z" style="fill:#bac8cc"/><path d="M716,65.32c0,4.67-2.48,7.12-7.25,7.16-4.29,0-6.82-2.62-6.82-7.14,0-4.67,2.83-7.39,7.6-7.33C713.17,58.05,716,61.27,716,65.32Z" style="fill:#b9c6d3"/><path d="M752.85,62.32h22.89c.91,0,1.81,0,2.72,0s1.7.19,1.69,1.17-.93,1.09-1.72,1.16c-.38,0-.77,0-1.16,0-15.89.05-31.77,1-47.67.63a11.18,11.18,0,0,1-1.16,0c-1.27-.12-3,0-2.84-1.8.11-1.64,1.75-1.2,2.81-1.2C736.56,62.3,744.71,62.32,752.85,62.32Z" style="fill:#accbe1"/><path d="M752.65,130H729c-.52,0-1,0-1.55,0-1-.09-2.42.27-2.51-1.12s1.4-1.23,2.34-1.23q25.38,0,50.77,0c1,0,2.53-.06,2.52,1.17,0,1.74-1.73,1.13-2.74,1.13-8.39.06-16.79,0-25.19,0Z" style="fill:#b5c7d1"/><path d="M752.7,73.22H729.87c-1,0-2.07,0-3.09-.1-.69-.06-1.27-.4-1.17-1.21a1.07,1.07,0,0,1,1-1c.9-.08,1.8-.14,2.7-.14,15.74,0,31.48,0,47.22.06,1.36,0,3.75-.75,3.76,1.28,0,1.6-2.34,1-3.64,1-8,.07-16,0-24,0Z" style="fill:#accedb"/><path d="M797.61,188.12H689.51c-1.26,0-2.61.29-3.71-.67l108.52-.05C795.45,187.41,796.67,187.15,797.61,188.12Z" style="fill:#a6aeb4"/><path d="M708.9,122.08c-1.94,0-3.87,0-5.8,0-1,0-1.78-.43-1.7-1.62a1.38,1.38,0,0,1,1.58-1.32q6.18-.06,12.36,0c.95,0,1.87.41,1.76,1.58s-1.11,1.33-2,1.35c-2.06.06-4.12,0-6.18,0Z" style="fill:#bec8cb"/><path d="M709.2,127.59c1.92,0,3.85,0,5.77,0,.9,0,1.95.13,2,1.29s-1,1-1.68,1.17c-4,1-8.17.48-12.26.49-1,0-1.75-.49-1.65-1.65.09-1,.83-1.26,1.64-1.27,2.05,0,4.11,0,6.16,0Z" style="fill:#c1d2d5"/><path d="M361.23,279.15c1.29-.87,2.75-.58,4.15-.58H511.59c1.39,0,2.86-.3,4.14.6q-69.3,0-138.59.09C371.84,279.26,366.54,279.19,361.23,279.15Z" style="fill:#3f6180"/><path d="M417.9,177.62c-1.17-.34-3.45.75-3.49-1.56-.05-2.54,1.94-3.35,4.32-3.21,1.84.11,4.24.27,4.16,2.43C422.79,178.14,420,177.51,417.9,177.62Z" style="fill:#2d3946"/><path d="M492.46,457.18a32.43,32.43,0,0,1-16.36,7.9c-1.56.77-3.25.65-4.92.67-11.33.13-22.65.07-34-.75-2-.15-4.15-.37-6,.78-1.24-1.11-2.55-2.16-3.71-3.35-6.75-6.85-14.94-8.62-24.14-7-3.7.65-5.06-1-3.84-4.65,1-3.1,4.05-4.58,5.89-7,2.22-2.95,5.17-1.8,8.15-1.5,11.26,1.09,22.45,2.71,33.67,4.1,9.69,1.19,19.34,2.83,29.06,3.59,8.1.63,16.51,1.74,23.83-3.63.58-.42.81.31.93.82l-4.67,6.19A15.22,15.22,0,0,1,492.46,457.18Z" style="fill:#242f44"/><path d="M446.51,588.47c1.15,1.13,3,0,4.1,1.35C448.66,591.16,447.21,591,446.51,588.47Z" style="fill:#263146"/><path d="M492.46,457.18c1.21-1.38,1.9-3.27,3.89-3.87A4.7,4.7,0,0,1,492.46,457.18Z" style="fill:#27344d"/><rect x="105.84" y="45.72" width="1.32" height="93.72" rx="0.51" style="fill:#264160"/><rect x="121.54" y="44.46" width="1.32" height="95.45" rx="0.51" style="fill:#264160"/><rect x="137.71" y="44.6" width="1.32" height="94.55" rx="0.51" style="fill:#264160"/><path d="M641.92,325.94c-.56.33-6.4-4.68-6.34-10.93,0-4.24,2.76-5.15,7.4-14.1,2.65-5.1,4-7.88,4.23-11.64a20.31,20.31,0,0,0-3.88-12.34,11.87,11.87,0,0,1,5.12,4.15,13,13,0,0,1,1.85,8.46c-.14,2.15-.66,4.81-4.94,12.6-4.8,8.75-6.32,9.36-6.61,12.87C638.24,321.19,642.43,325.64,641.92,325.94Z" style="fill:#d2d2d4"/><path d="M652.46,319.84c-.52.31-6-4.41-6-10.29,0-4,2.6-4.86,7-13.28,2.49-4.81,3.81-7.42,4-11a19.13,19.13,0,0,0-3.66-11.62,11.09,11.09,0,0,1,4.82,3.9,12.16,12.16,0,0,1,1.74,8c-.12,2-.62,4.53-4.65,11.87-4.52,8.24-6,8.82-6.22,12.12C649,315.37,652.94,319.56,652.46,319.84Z" style="fill:#e8e8ea"/><path d="M216,89.3h-1.49a.42.42,0,0,0-.13-.07,3.08,3.08,0,0,1-1.82-1.31,5.51,5.51,0,0,1-.82-2.75,14.21,14.21,0,0,1,.47-4.45c.08-.33,0-.42-.31-.51a15.13,15.13,0,0,1-2.36-.86,8.79,8.79,0,0,1-3.13-2.19,3.25,3.25,0,0,1-.81-2.93,4.4,4.4,0,0,1,1.78-2.47,13.23,13.23,0,0,1,4-2c.28-.09.67-.12.82-.32s-.07-.58-.13-.88a12.69,12.69,0,0,1-.2-4.91,3.57,3.57,0,0,1,2.51-3.07s0,0,.07-.06H216a9.67,9.67,0,0,1,2.18.85,16.51,16.51,0,0,1,3.29,2.48c.17.16.26.17.44,0a18.07,18.07,0,0,1,2.19-1.8,9.7,9.7,0,0,1,3.27-1.53h1.49c0,.07.11.06.17.08a3.08,3.08,0,0,1,1.77,1.27,5.48,5.48,0,0,1,.84,2.78,14.91,14.91,0,0,1-.49,4.51c-.06.24,0,.34.23.41a17.08,17.08,0,0,1,2,.71,9.36,9.36,0,0,1,3.57,2.37,3.25,3.25,0,0,1,.16,4.29,6.64,6.64,0,0,1-1.89,1.65,15.78,15.78,0,0,1-3.85,1.64c-.21.06-.3.14-.24.38a14.18,14.18,0,0,1,.47,2.73,8.62,8.62,0,0,1-.33,3.64,3.43,3.43,0,0,1-1.65,2c-.25.12-.51.21-.77.31h-1.49a10.44,10.44,0,0,1-2.21-.86A17,17,0,0,1,221.87,86c-.17-.17-.27-.17-.44,0a19.5,19.5,0,0,1-2.11,1.74A10.08,10.08,0,0,1,216,89.3Zm5.67-9.19c.84,0,1.69,0,2.54-.07.2,0,.41,0,.56-.23a43.05,43.05,0,0,0,2.66-4.61.56.56,0,0,0,0-.57A41.5,41.5,0,0,0,224.72,70a.38.38,0,0,0-.33-.2l-1.2-.07a37.14,37.14,0,0,0-4.22.06.49.49,0,0,0-.42.24,46,46,0,0,0-2.64,4.55.66.66,0,0,0,0,.64,46.56,46.56,0,0,0,2.57,4.44.74.74,0,0,0,.65.37C220,80.06,220.79,80.15,221.63,80.11ZM213.09,65a14.82,14.82,0,0,0,.48,3.92c.05.21.16.18.31.15a32.44,32.44,0,0,1,3.79-.59.54.54,0,0,0,.42-.24,27.65,27.65,0,0,1,2.41-3c.15-.17.11-.26,0-.39A19,19,0,0,0,219,63.65,8.41,8.41,0,0,0,215.91,62a1.94,1.94,0,0,0-2.57,1.44A5.39,5.39,0,0,0,213.09,65Zm0,19.79a4.93,4.93,0,0,0,.41,2,1.77,1.77,0,0,0,1.84,1.14,4.62,4.62,0,0,0,1.22-.29,13.07,13.07,0,0,0,4-2.74c.13-.12.1-.21,0-.32A33.17,33.17,0,0,1,218,81.51a.35.35,0,0,0-.29-.17,34.53,34.53,0,0,1-3.91-.61c-.16,0-.24,0-.28.16A15.27,15.27,0,0,0,213.09,84.82ZM230.2,65.06a4.9,4.9,0,0,0-.41-2,1.79,1.79,0,0,0-1.93-1.1,4.53,4.53,0,0,0-1.25.33,13.14,13.14,0,0,0-3.83,2.69c-.13.11-.11.2,0,.32a33,33,0,0,1,2.47,3.06.39.39,0,0,0,.28.18,34.33,34.33,0,0,1,3.92.6c.15,0,.24,0,.28-.15A15,15,0,0,0,230.2,65.06Zm0,19.44a16.44,16.44,0,0,0-.48-3.57c-.05-.18-.11-.24-.31-.19a32.28,32.28,0,0,1-3.78.59.57.57,0,0,0-.47.28,28.9,28.9,0,0,1-2.37,2.93c-.16.18-.13.27,0,.42a17.6,17.6,0,0,0,2.34,1.87,7,7,0,0,0,2.22,1A1.93,1.93,0,0,0,230,86.41,6.93,6.93,0,0,0,230.22,84.5ZM236.41,75a2.51,2.51,0,0,0-1-1.87,12.27,12.27,0,0,0-4.49-2.18c-.17-.06-.24,0-.28.16a32.78,32.78,0,0,1-1.43,3.67.44.44,0,0,0,0,.37,31.29,31.29,0,0,1,1.42,3.67c.06.18.15.2.31.14l.95-.31a10.66,10.66,0,0,0,3.52-1.87A2.52,2.52,0,0,0,236.41,75Zm-23.89-4.07-.25.07a16.39,16.39,0,0,0-1.82.65,8.37,8.37,0,0,0-2.83,1.78,1.91,1.91,0,0,0-.33,2.67,3.82,3.82,0,0,0,.61.66,12.32,12.32,0,0,0,4.56,2.21c.17,0,.21,0,.24-.16a34.83,34.83,0,0,1,1.43-3.67.4.4,0,0,0,0-.34A34.28,34.28,0,0,1,212.69,71C212.66,71,212.64,70.86,212.52,70.89ZM216.9,70c-1,.13-1.87.27-2.74.47-.1,0-.15.06-.11.18.28.86.59,1.72,1,2.6C215.61,72.15,216.21,71.11,216.9,70Zm11.37,3.25c.38-.87.68-1.7,1-2.54.07-.21,0-.24-.19-.27-.5-.09-1-.2-1.52-.28a5.29,5.29,0,0,0-1.1-.12C227.08,71.11,227.69,72.14,228.27,73.26Zm-11.4,6.53c-.66-1.06-1.26-2.1-1.85-3.21-.37.88-.68,1.71-1,2.56-.07.21.07.22.19.24.5.1,1,.2,1.52.28A4.67,4.67,0,0,0,216.87,79.79Zm11.4-3.22c-.58,1.13-1.19,2.16-1.86,3.24a22.53,22.53,0,0,0,2.73-.45c.14,0,.13-.11.09-.22C229,78.29,228.65,77.46,228.27,76.57Zm-4.74-8.21a26.33,26.33,0,0,0-1.79-2.16c-.13-.14-.18,0-.25.07-.56.61-1.08,1.25-1.59,1.91,0,0-.1.09,0,.19A27.73,27.73,0,0,1,223.53,68.36Zm-3.77,13.11a26.73,26.73,0,0,0,1.8,2.16c.06.08.11.08.18,0,.61-.68,1.2-1.37,1.79-2.17A29.64,29.64,0,0,1,219.76,81.47Z" style="fill:#c5c9d0"/><path d="M221.66,77.8a2.88,2.88,0,1,1,2.87-2.88A2.9,2.9,0,0,1,221.66,77.8Z" style="fill:#c5c9d0"/><path d="M444.35,329.82c2.55-.73,4.46-7,2.3-10.5-2.5-4.1-10.23-4.21-15.08-1.41-6.13,3.54-9.08,12.56-5.51,19.33S438.75,347,443.9,344c2.37-1.4,4.45-4.4,3.89-7.1-1-5-10.55-6.6-11.79-4.81-.47.68.05,2.16.94,2.88,1.7,1.38,4.1-.44,5.48.8,1,.91,1,3,.13,4.29-1.44,2.16-5.19,1.74-7.17,1.07-3.66-1.22-5.37-4.64-5.9-5.91-2-4.72-1.1-11.7,3.42-14.45,3.93-2.38,9.16-.76,10.28.82s.05,2.34-1.43,4.55c-.76,1.13-.81,1.8-.57,2.4A2.89,2.89,0,0,0,444.35,329.82Z" style="fill:#c5ced8"/></svg>